<svg width="621" height="426" xmlns="http://www.w3.org/2000/svg" xmlns:xlink="http://www.w3.org/1999/xlink" xml:space="preserve" overflow="hidden"><defs><clipPath id="clip0"><rect x="383" y="1741" width="621" height="426"/></clipPath></defs><g clip-path="url(#clip0)" transform="translate(-383 -1741)"><path d="M385 1757.5C385 1748.39 392.387 1741 401.5 1741 410.613 1741 418 1748.39 418 1757.5 418 1766.61 410.613 1774 401.5 1774 392.387 1774 385 1766.61 385 1757.5Z" fill="#F04768" fill-rule="evenodd"/><path d="M483 1757.5C483 1748.39 490.387 1741 499.5 1741 508.613 1741 516 1748.39 516 1757.5 516 1766.61 508.613 1774 499.5 1774 490.387 1774 483 1766.61 483 1757.5Z" fill="#F04768" fill-rule="evenodd"/><path d="M384 1852.5C384 1843.39 391.387 1836 400.5 1836 409.613 1836 417 1843.39 417 1852.5 417 1861.61 409.613 1869 400.5 1869 391.387 1869 384 1861.61 384 1852.5Z" fill="#F04768" fill-rule="evenodd"/><path d="M482 1852.5C482 1843.39 489.387 1836 498.5 1836 507.613 1836 515 1843.39 515 1852.5 515 1861.61 507.613 1869 498.5 1869 489.387 1869 482 1861.61 482 1852.5Z" fill="#F04768" fill-rule="evenodd"/><path d="M385 2055.5C385 2046.39 392.387 2039 401.5 2039 410.613 2039 418 2046.39 418 2055.5 418 2064.61 410.613 2072 401.5 2072 392.387 2072 385 2064.61 385 2055.5Z" fill="#F04768" fill-rule="evenodd"/><path d="M483 2055.5C483 2046.39 490.387 2039 499.5 2039 508.613 2039 516 2046.39 516 2055.5 516 2064.61 508.613 2072 499.5 2072 490.387 2072 483 2064.61 483 2055.5Z" fill="#F04768" fill-rule="evenodd"/><path d="M583 2055.5C583 2046.39 590.387 2039 599.5 2039 608.613 2039 616 2046.39 616 2055.5 616 2064.61 608.613 2072 599.5 2072 590.387 2072 583 2064.61 583 2055.5Z" fill="#F04768" fill-rule="evenodd"/><path d="M681 2055.5C681 2046.39 688.387 2039 697.5 2039 706.613 2039 714 2046.39 714 2055.5 714 2064.61 706.613 2072 697.5 2072 688.387 2072 681 2064.61 681 2055.5Z" fill="#F04768" fill-rule="evenodd"/><path d="M777 2055.5C777 2046.39 784.387 2039 793.5 2039 802.613 2039 810 2046.39 810 2055.5 810 2064.61 802.613 2072 793.5 2072 784.387 2072 777 2064.61 777 2055.5Z" fill="#F04768" fill-rule="evenodd"/><path d="M385 1959.5C385 1950.39 392.387 1943 401.5 1943 410.613 1943 418 1950.39 418 1959.5 418 1968.61 410.613 1976 401.5 1976 392.387 1976 385 1968.61 385 1959.5Z" fill="#F04768" fill-rule="evenodd"/><path d="M483 1959.5C483 1950.39 490.387 1943 499.5 1943 508.613 1943 516 1950.39 516 1959.5 516 1968.61 508.613 1976 499.5 1976 490.387 1976 483 1968.61 483 1959.5Z" fill="#F04768" fill-rule="evenodd"/><path d="M383 2150.5C383 2141.39 390.387 2134 399.5 2134 408.613 2134 416 2141.39 416 2150.5 416 2159.61 408.613 2167 399.5 2167 390.387 2167 383 2159.61 383 2150.5Z" fill="#F04768" fill-rule="evenodd"/><path d="M482 2150.5C482 2141.39 489.387 2134 498.5 2134 507.613 2134 515 2141.39 515 2150.5 515 2159.61 507.613 2167 498.5 2167 489.387 2167 482 2159.61 482 2150.5Z" fill="#F04768" fill-rule="evenodd"/><path d="M581 2150.5C581 2141.39 588.387 2134 597.5 2134 606.613 2134 614 2141.39 614 2150.5 614 2159.61 606.613 2167 597.5 2167 588.387 2167 581 2159.61 581 2150.5Z" fill="#F04768" fill-rule="evenodd"/><path d="M679 2150.5C679 2141.39 686.387 2134 695.5 2134 704.613 2134 712 2141.39 712 2150.5 712 2159.61 704.613 2167 695.5 2167 686.387 2167 679 2159.61 679 2150.5Z" fill="#F04768" fill-rule="evenodd"/><path d="M776 2150.5C776 2141.39 783.387 2134 792.5 2134 801.612 2134 809 2141.39 809 2150.5 809 2159.61 801.612 2167 792.5 2167 783.387 2167 776 2159.61 776 2150.5Z" fill="#F04768" fill-rule="evenodd"/><path d="M873 2055.5C873 2046.39 880.387 2039 889.5 2039 898.613 2039 906 2046.39 906 2055.5 906 2064.61 898.613 2072 889.5 2072 880.387 2072 873 2064.61 873 2055.5Z" fill="#F04768" fill-rule="evenodd"/><path d="M971 2055.5C971 2046.39 978.387 2039 987.5 2039 996.613 2039 1004 2046.39 1004 2055.5 1004 2064.61 996.613 2072 987.5 2072 978.387 2072 971 2064.61 971 2055.5Z" fill="#F04768" fill-rule="evenodd"/><path d="M872 2150.5C872 2141.39 879.387 2134 888.5 2134 897.613 2134 905 2141.39 905 2150.5 905 2159.61 897.613 2167 888.5 2167 879.387 2167 872 2159.61 872 2150.5Z" fill="#F04768" fill-rule="evenodd"/><path d="M970 2150.5C970 2141.39 977.387 2134 986.5 2134 995.613 2134 1003 2141.39 1003 2150.5 1003 2159.61 995.613 2167 986.5 2167 977.387 2167 970 2159.61 970 2150.5Z" fill="#F04768" fill-rule="evenodd"/></g></svg>