<svg width="254" height="135" xmlns="http://www.w3.org/2000/svg" xmlns:xlink="http://www.w3.org/1999/xlink" xml:space="preserve" overflow="hidden"><g transform="translate(-415 -263)"><path d="M164.126-13.9969 347.772-13.9969C351.23-13.9969 354.034-11.1934 354.034-7.73509L354.034 104.459C354.034 106.046 352.747 107.333 351.159 107.333L160.739 107.333C159.151 107.333 157.864 106.046 157.864 104.459L157.864-7.73509C157.864-11.1934 160.668-13.9969 164.126-13.9969Z" stroke="#172C51" stroke-width="0.324823" stroke-miterlimit="8" fill-rule="evenodd" transform="matrix(1 0 0 1.00204 286.086 277.203)"/><path d="M161.266-10.1699 350.561-10.1699 350.561 103.506 161.266 103.506Z" stroke="#172C51" stroke-width="0.324823" stroke-miterlimit="8" fill="#FFFFFF" transform="matrix(1 0 0 1.00204 286.086 277.203)"/><path d="M161.266-10.2408 350.561-10.2408 350.561-2.72852 161.266-2.72852Z" stroke="#172C51" stroke-width="0.324823" stroke-miterlimit="8" fill="#DFE1E5" transform="matrix(1 0 0 1.00204 286.086 277.203)"/><path d="M162.967-6.59097C162.967-7.2368 163.491-7.76032 164.136-7.76032 164.782-7.76032 165.306-7.2368 165.306-6.59097 165.306-5.94515 164.782-5.42161 164.136-5.42161 163.491-5.42161 162.967-5.94515 162.967-6.59097Z" stroke="#172C51" stroke-width="0.324823" stroke-miterlimit="8" fill="#70AD47" fill-rule="evenodd" transform="matrix(1 0 0 1.00204 286.086 277.203)"/><path d="M167.006-6.59097C167.006-7.2368 167.53-7.76032 168.176-7.76032 168.821-7.76032 169.345-7.2368 169.345-6.59097 169.345-5.94515 168.821-5.42161 168.176-5.42161 167.53-5.42161 167.006-5.94515 167.006-6.59097Z" stroke="#172C51" stroke-width="0.324823" stroke-miterlimit="8" fill="#FFFF00" fill-rule="evenodd" transform="matrix(1 0 0 1.00204 286.086 277.203)"/><path d="M170.833-6.59097C170.833-7.2368 171.357-7.76032 172.003-7.76032 172.648-7.76032 173.172-7.2368 173.172-6.59097 173.172-5.94515 172.648-5.42161 172.003-5.42161 171.357-5.42161 170.833-5.94515 170.833-6.59097Z" stroke="#172C51" stroke-width="0.324823" stroke-miterlimit="8" fill="#C00000" fill-rule="evenodd" transform="matrix(1 0 0 1.00204 286.086 277.203)"/><path d="M161.266-2.79939 350.561-2.79939 350.561 7.83119 161.266 7.83119Z" stroke="#F2F2F2" stroke-width="0.324823" stroke-miterlimit="8" fill="#FFFFFF" transform="matrix(1 0 0 1.00204 286.086 277.203)"/><path d="M175.369-0.531534 344.821-0.531534C346.465-0.531534 347.797 0.801121 347.797 2.44503L347.797 2.44503C347.797 4.08895 346.465 5.42161 344.821 5.42161L175.369 5.42161C173.725 5.42161 172.393 4.08895 172.393 2.44503L172.393 2.44503C172.393 0.801121 173.725-0.531534 175.369-0.531534Z" stroke="#DFE1E5" stroke-width="0.324823" stroke-miterlimit="8" fill="#FFFFFF" fill-rule="evenodd" transform="matrix(1 0 0 1.00204 286.086 277.203)"/><path d="M161.266 7.83119 350.561 7.83119 350.561 103.506 161.266 103.506Z" stroke="#172C51" stroke-width="0.324823" stroke-miterlimit="8" fill="#F2F2F2" transform="matrix(1 0 0 1.00204 286.086 277.203)"/><path d="M161.266 7.83119 350.561 7.83119 350.561 14.5639 161.266 14.5639Z" stroke="#172C51" stroke-width="0.324823" stroke-miterlimit="8" fill="#2F333B" transform="matrix(1 0 0 1.00204 286.086 277.203)"/><path d="M230.861 27.3915 318.173 27.3915 318.173 94.3641 230.861 94.3641Z" stroke="#172C51" stroke-width="0.324823" stroke-miterlimit="8" fill="#2F333B" transform="matrix(1 0 0 1.00204 286.086 277.203)"/><path d="M161.23 15.0954 198.083 15.0954 198.083 103.471 161.23 103.471Z" fill="#FFFFFF" transform="matrix(1 0 0 1.00204 286.086 277.203)"/><path d="M167.609 43.231 194.894 43.231 194.894 46.6328 167.609 46.6328Z" fill="#E7E6E6" transform="matrix(1 0 0 1.00204 286.086 277.203)"/><path d="M167.609 52.2316 194.894 52.2316 194.894 55.6334 167.609 55.6334Z" fill="#E7E6E6" transform="matrix(1 0 0 1.00204 286.086 277.203)"/><path d="M167.609 61.1613 194.894 61.1613 194.894 64.563 167.609 64.563Z" fill="#E7E6E6" transform="matrix(1 0 0 1.00204 286.086 277.203)"/><path d="M172.322 71.4375 190.181 71.4375C191.492 71.4375 192.555 72.5006 192.555 73.8117L192.555 73.8117C192.555 75.1228 191.492 76.1858 190.181 76.1858L172.322 76.1858C171.011 76.1858 169.948 75.1228 169.948 73.8117L169.948 73.8117C169.948 72.5006 171.011 71.4375 172.322 71.4375Z" fill="#6653FF" fill-rule="evenodd" transform="matrix(1 0 0 1.00204 286.086 277.203)"/><path d="M161.23 7.79576 171.578 7.79576 171.578 14.5285 161.23 14.5285Z" fill="#6653FF" transform="matrix(1 0 0 1.00204 286.086 277.203)"/><path d="M306.728 8.22098 326.642 8.22098 326.642 14.1741 306.728 14.1741Z" fill="#6653FF" transform="matrix(1 0 0 1.00204 286.086 277.203)"/><path d="M255.476 46.6682 296.133 46.6682 296.133 73.7174C296.133 76.7046 293.71 79.127 290.723 79.127L250.067 79.127 250.067 52.0782C250.067 49.0903 252.489 46.6682 255.476 46.6682Z" stroke="#172C51" stroke-width="0.324823" stroke-miterlimit="8" fill="#D0CBD1" fill-rule="evenodd" transform="matrix(1 0 0 1.00204 286.086 277.203)"/><path d="M262.504 49.255 277.458 49.255 277.458 79.0915 262.504 79.0915Z" fill="#D8D19A" transform="matrix(1 0 0 1.00204 286.086 277.203)"/><path d="M167.609 36.0022 194.894 36.0022 194.894 39.404 167.609 39.404Z" fill="#E7E6E6" transform="matrix(1 0 0 1.00204 286.086 277.203)"/><path d="M129.091 109.211C129.091 107.978 130.09 106.979 131.323 106.979L380.504 106.979C381.737 106.979 382.736 107.978 382.736 109.211L382.736 118.141C382.736 119.374 381.737 120.374 380.504 120.374L131.323 120.374C130.09 120.374 129.091 119.374 129.091 118.141Z" stroke="#172C51" stroke-width="0.324823" stroke-miterlimit="8" fill="#DFE1E5" fill-rule="evenodd" transform="matrix(1 0 0 1.00204 286.086 277.203)"/></g></svg>