<svg width="3584" height="1901" xmlns="http://www.w3.org/2000/svg" xmlns:xlink="http://www.w3.org/1999/xlink" xml:space="preserve" overflow="hidden"><g transform="translate(-1819 200)"><path d="M2315.86-197.5 4907.14-197.5C4955.94-197.5 4995.5-157.942 4995.5-109.144L4995.5 1473.94C4995.5 1496.34 4977.34 1514.5 4954.94 1514.5L2268.06 1514.5C2245.66 1514.5 2227.5 1496.34 2227.5 1473.94L2227.5-109.144C2227.5-157.942 2267.06-197.5 2315.86-197.5Z" stroke="#172C51" stroke-width="4.58333" stroke-miterlimit="8" fill-rule="evenodd"/><rect x="2275.5" y="-143.5" width="2671" height="1604" stroke="#172C51" stroke-width="4.58333" stroke-miterlimit="8" fill="#FFFFFF"/><rect x="2275.5" y="-144.5" width="2671" height="106" stroke="#172C51" stroke-width="4.58333" stroke-miterlimit="8" fill="#DFE1E5"/><path d="M2299.5-93.0002C2299.5-102.113 2306.89-109.5 2316-109.5 2325.11-109.5 2332.5-102.113 2332.5-93.0002 2332.5-83.8875 2325.11-76.5002 2316-76.5002 2306.89-76.5002 2299.5-83.8875 2299.5-93.0002Z" stroke="#172C51" stroke-width="4.58333" stroke-miterlimit="8" fill="#70AD47" fill-rule="evenodd"/><path d="M2356.5-93.0002C2356.5-102.113 2363.89-109.5 2373-109.5 2382.11-109.5 2389.5-102.113 2389.5-93.0002 2389.5-83.8875 2382.11-76.5002 2373-76.5002 2363.89-76.5002 2356.5-83.8875 2356.5-93.0002Z" stroke="#172C51" stroke-width="4.58333" stroke-miterlimit="8" fill="#FFFF00" fill-rule="evenodd"/><path d="M2410.5-93.0002C2410.5-102.113 2417.89-109.5 2427-109.5 2436.11-109.5 2443.5-102.113 2443.5-93.0002 2443.5-83.8875 2436.11-76.5002 2427-76.5002 2417.89-76.5002 2410.5-83.8875 2410.5-93.0002Z" stroke="#172C51" stroke-width="4.58333" stroke-miterlimit="8" fill="#C00000" fill-rule="evenodd"/><rect x="2275.5" y="-39.5" width="2671" height="150" stroke="#F2F2F2" stroke-width="4.58333" stroke-miterlimit="8" fill="#FFFFFF"/><path d="M2474.5-7.50007 4865.5-7.50007C4888.7-7.50007 4907.5 11.304 4907.5 34.5L4907.5 34.5C4907.5 57.6961 4888.7 76.5002 4865.5 76.5002L2474.5 76.5002C2451.3 76.5002 2432.5 57.6961 2432.5 34.5L2432.5 34.5C2432.5 11.304 2451.3-7.50007 2474.5-7.50007Z" stroke="#DFE1E5" stroke-width="4.58333" stroke-miterlimit="8" fill="#FFFFFF" fill-rule="evenodd"/><rect x="2275.5" y="110.5" width="2671" height="1350" stroke="#172C51" stroke-width="4.58333" stroke-miterlimit="8" fill="#F2F2F2"/><rect x="2275.5" y="110.5" width="2671" height="95.0002" stroke="#172C51" stroke-width="4.58333" stroke-miterlimit="8" fill="#2F333B"/><rect x="3257.5" y="386.5" width="1232" height="945" stroke="#172C51" stroke-width="4.58333" stroke-miterlimit="8" fill="#2F333B"/><rect x="2275" y="213" width="520" height="1247" fill="#FFFFFF"/><rect x="2365" y="610" width="385" height="47.9998" fill="#E7E6E6"/><rect x="2365" y="737" width="385" height="48.0001" fill="#E7E6E6"/><rect x="2365" y="863" width="385" height="47.9998" fill="#E7E6E6"/><path d="M2431.5 1008 2683.5 1008C2702 1008 2717 1023 2717 1041.5L2717 1041.5C2717 1060 2702 1075 2683.5 1075L2431.5 1075C2413 1075 2398 1060 2398 1041.5L2398 1041.5C2398 1023 2413 1008 2431.5 1008Z" fill="#6653FF" fill-rule="evenodd"/><rect x="2275" y="110" width="146" height="94.9999" fill="#6653FF"/><rect x="4328" y="116" width="281" height="84.0002" fill="#6653FF"/><path d="M3604.83 658.5 4178.5 658.5 4178.5 1040.17C4178.5 1082.32 4144.32 1116.5 4102.17 1116.5L3528.5 1116.5 3528.5 734.835C3528.5 692.676 3562.68 658.5 3604.83 658.5Z" stroke="#172C51" stroke-width="4.58333" stroke-miterlimit="8" fill="#D0CBD1" fill-rule="evenodd"/><rect x="3704" y="695" width="211" height="421" fill="#D8D19A"/><rect x="2365" y="508" width="385" height="47.9998" fill="#E7E6E6"/><path d="M1821.5 1541C1821.5 1523.6 1835.6 1509.5 1853 1509.5L5369 1509.5C5386.4 1509.5 5400.5 1523.6 5400.5 1541L5400.5 1667C5400.5 1684.4 5386.4 1698.5 5369 1698.5L1853 1698.5C1835.6 1698.5 1821.5 1684.4 1821.5 1667Z" stroke="#172C51" stroke-width="4.58333" stroke-miterlimit="8" fill="#DFE1E5" fill-rule="evenodd"/></g></svg>