<svg width="638" height="735" xmlns="http://www.w3.org/2000/svg" xmlns:xlink="http://www.w3.org/1999/xlink" xml:space="preserve" overflow="hidden"><defs><clipPath id="clip0"><rect x="3610" y="524" width="638" height="735"/></clipPath></defs><g clip-path="url(#clip0)" transform="translate(-3610 -524)"><path d="M4088 762C4088 846.5 4016.59 915 3928.5 915 3840.41 915 3769 846.5 3769 762 3769 677.501 3840.41 609 3928.5 609 4016.59 609 4088 677.501 4088 762Z" fill="#419EAD" fill-rule="evenodd"/><path d="M4248 1259 4248 1106C4248 1083.05 4236.04 1060.1 4216.1 1044.8 4172.24 1010.38 4116.41 987.425 4060.59 972.125 4020.71 960.65 3976.85 953 3929 953 3885.14 953 3841.28 960.65 3797.41 972.125 3741.59 987.425 3685.76 1014.2 3641.9 1044.8 3621.96 1060.1 3610 1083.05 3610 1106L3610 1259 4248 1259Z" fill="#419EAD" fill-rule="evenodd"/><path d="M3697.13 718.799C3701.45 608.128 3809.66 521.411 3938.82 525.112 4061.48 528.627 4160.13 612.744 4164.83 717.826L4117.19 719.389C4113.08 635.045 4026.38 569.406 3923.55 572.781 3826.12 575.979 3748.18 640.239 3744.77 720.164Z" fill="#419EAD" fill-rule="evenodd"/><path d="M3677 724.667C3677 717.119 3683.12 711 3690.67 711L3745.33 711C3752.88 711 3759 717.119 3759 724.667L3759 803.333C3759 810.881 3752.88 817 3745.33 817L3690.67 817C3683.12 817 3677 810.881 3677 803.333Z" fill="#419EAD" fill-rule="evenodd"/><path d="M4098 724.667C4098 717.119 4104.12 711 4111.67 711L4166.33 711C4173.88 711 4180 717.119 4180 724.667L4180 803.333C4180 810.881 4173.88 817 4166.33 817L4111.67 817C4104.12 817 4098 810.881 4098 803.333Z" fill="#419EAD" fill-rule="evenodd"/></g></svg>