<svg width="793" height="872" xmlns="http://www.w3.org/2000/svg" xmlns:xlink="http://www.w3.org/1999/xlink" xml:space="preserve" overflow="hidden"><g transform="translate(-2753 -1394)"><path d="M3323.5 1757.5C3323.5 1842.55 3250.97 1911.5 3161.5 1911.5 3072.03 1911.5 2999.5 1842.55 2999.5 1757.5 2999.5 1672.45 3072.03 1603.5 3161.5 1603.5 3250.97 1603.5 3323.5 1672.45 3323.5 1757.5Z" stroke="#FFFFFF" stroke-width="14.6789" stroke-miterlimit="8" fill="#A0C8D0" fill-rule="evenodd"/><path d="M3486.5 2258.5 3486.5 2104.5C3486.5 2081.4 3474.33 2058.3 3454.05 2042.9 3409.43 2008.25 3352.64 1985.15 3295.86 1969.75 3255.29 1958.2 3210.68 1950.5 3162 1950.5 3117.38 1950.5 3072.76 1958.2 3028.14 1969.75 2971.36 1985.15 2914.57 2012.1 2869.95 2042.9 2849.67 2058.3 2837.5 2081.4 2837.5 2104.5L2837.5 2258.5 3486.5 2258.5Z" stroke="#FFFFFF" stroke-width="14.6789" stroke-miterlimit="8" fill="#A0C8D0" fill-rule="evenodd"/><path d="M2982 1539 2982 1583.84C2982 1604.92 3066.38 1626 3171 1626 3275.63 1626 3360 1604.92 3360 1583.84L3360 1539 3171 1576.94 2982 1539Z" stroke="#FFFFFF" stroke-width="20.1468" stroke-miterlimit="8" fill="#A0C8D0" fill-rule="evenodd"/><path d="M3171 1560.91 3465 1502.53 3171 1443 2877 1502.53 2914.76 1510.16 2914.76 1580.37C2914.76 1584.57 2920.83 1588 2928.25 1588 2935.67 1588 2941.73 1584.57 2941.73 1580.37L2941.73 1515.5 3171 1560.91Z" stroke="#FFFFFF" stroke-width="20.1468" stroke-miterlimit="8" fill="#A0C8D0" fill-rule="evenodd"/></g></svg>