<svg width="794" height="855" xmlns="http://www.w3.org/2000/svg" xmlns:xlink="http://www.w3.org/1999/xlink" xml:space="preserve" overflow="hidden"><g transform="translate(-3609 -1407)"><path d="M4005 1470.83C4063.25 1470.83 4109.85 1513.39 4109.85 1566.58L3900.15 1566.58C3900.15 1513.39 3946.75 1470.83 4005 1470.83ZM3772 1768.72C3772 1780.43 3782.48 1790 3795.3 1790L3958.4 1790 3958.4 1768.72C3958.4 1757.02 3968.89 1747.44 3981.7 1747.44L4028.3 1747.44C4041.12 1747.44 4051.6 1757.02 4051.6 1768.72L4051.6 1790 4214.7 1790C4227.52 1790 4238 1780.43 4238 1768.72L4238 1566.58 4179.75 1566.58C4179.75 1478.28 4101.7 1407 4005 1407 3908.3 1407 3830.25 1478.28 3830.25 1566.58L3772 1566.58 3772 1768.72Z" fill="#A0C8D0" fill-rule="evenodd"/><path d="M4176.85 2098 3834.15 2098C3825.99 2098 3819 2104.4 3819 2111.87L3819 2258 4192 2258 4192 2111.87C4192 2104.4 4185.01 2098 4176.85 2098L4176.85 2098Z" fill="#C16859" fill-rule="evenodd"/><path d="M4355.2 1906.83 4331.88 1906.83 4331.88 1651.43C4331.88 1620.57 4314.39 1592.9 4285.24 1578L4285.24 1768.49C4285.24 1803.6 4253.76 1832.33 4215.29 1832.33L4052.05 1832.33 4052.05 1853.62C4052.05 1865.32 4041.56 1874.9 4028.74 1874.9L3982.1 1874.9C3969.27 1874.9 3958.78 1865.32 3958.78 1853.62L3958.78 1832.33 3795.55 1832.33C3757.07 1832.33 3725.59 1803.6 3725.59 1768.49L3725.59 1578C3696.45 1592.9 3678.96 1621.63 3678.96 1651.43L3678.96 1906.83 3655.64 1906.83C3629.99 1906.83 3609 1925.98 3609 1949.39L3609 2119.66C3609 2143.07 3629.99 2162.23 3655.64 2162.23L3678.96 2162.23 3678.96 2215.43C3678.96 2238.85 3699.94 2258 3725.59 2258L3772.23 2258 3772.23 2112.21C3772.23 2081.35 3800.21 2055.81 3834.02 2055.81L4177.98 2055.81C4211.79 2055.81 4239.77 2081.35 4239.77 2112.21L4239.77 2258 4286.41 2258C4312.06 2258 4333.04 2238.85 4333.04 2215.43L4333.04 2162.23 4356.36 2162.23C4382.01 2162.23 4403 2143.07 4403 2119.66L4403 1949.39C4401.83 1925.98 4380.85 1906.83 4355.2 1906.83Z" fill="#A0C8D0" fill-rule="evenodd"/><path d="M4169 1743C4169 1830.26 4097.37 1901 4009 1901 3920.63 1901 3849 1830.26 3849 1743 3849 1655.74 3920.63 1585 4009 1585 4097.37 1585 4169 1655.74 4169 1743Z" stroke="#FFFFFF" stroke-width="11.8402" stroke-miterlimit="8" fill="#A0C8D0" fill-rule="evenodd"/><path d="M4329 2256 4329 2098C4329 2074.3 4317 2050.6 4297 2034.8 4253 1999.25 4197 1975.55 4141 1959.75 4101 1947.9 4057 1940 4009 1940 3965 1940 3921 1947.9 3877 1959.75 3821 1975.55 3765 2003.2 3721 2034.8 3701 2050.6 3689 2074.3 3689 2098L3689 2256 4329 2256Z" stroke="#FFFFFF" stroke-width="11.8402" stroke-miterlimit="8" fill="#A0C8D0" fill-rule="evenodd"/></g></svg>