<svg width="794" height="855" xmlns="http://www.w3.org/2000/svg" xmlns:xlink="http://www.w3.org/1999/xlink" xml:space="preserve" overflow="hidden"><defs><clipPath id="clip0"><rect x="829" y="-13" width="794" height="855"/></clipPath></defs><g clip-path="url(#clip0)" transform="translate(-829 13)"><path d="M1225.5 50.8331C1283.62 50.8331 1330.13 93.3888 1330.13 146.583L1120.88 146.583C1120.88 93.3888 1167.38 50.8331 1225.5 50.8331ZM993 348.722C993 360.425 1003.46 370 1016.25 370L1179 370 1179 348.722C1179 337.019 1189.46 327.445 1202.25 327.445L1248.75 327.445C1261.54 327.445 1272 337.019 1272 348.722L1272 370 1434.75 370C1447.54 370 1458 360.425 1458 348.722L1458 146.583 1399.88 146.583C1399.88 58.2806 1321.99-13.0001 1225.5-13.0001 1129.01-13.0001 1051.12 58.2806 1051.12 146.583L993 146.583 993 348.722Z" fill="#C16859" fill-rule="evenodd"/><path d="M1575.2 486.826 1551.88 486.826 1551.88 231.427C1551.88 200.567 1534.39 172.899 1505.24 158L1505.24 348.485C1505.24 383.603 1473.76 412.335 1435.29 412.335L1272.05 412.335 1272.05 433.618C1272.05 445.324 1261.56 454.902 1248.74 454.902L1202.1 454.902C1189.27 454.902 1178.78 445.324 1178.78 433.618L1178.78 412.335 1015.55 412.335C977.073 412.335 945.593 383.603 945.593 348.485L945.593 158C916.445 172.899 898.956 201.631 898.956 231.427L898.956 486.826 875.638 486.826C849.987 486.826 829 505.981 829 529.393L829 699.659C829 723.071 849.987 742.226 875.638 742.226L898.956 742.226 898.956 795.434C898.956 818.845 919.943 838 945.593 838L992.231 838 992.231 692.21C992.231 661.349 1020.21 635.809 1054.02 635.809L1397.98 635.809C1431.79 635.809 1459.77 661.349 1459.77 692.21L1459.77 838 1506.41 838C1532.06 838 1553.04 818.845 1553.04 795.434L1553.04 742.226 1576.36 742.226C1602.01 742.226 1623 723.071 1623 699.659L1623 529.393C1621.83 505.981 1600.85 486.826 1575.2 486.826Z" fill="#C16859" fill-rule="evenodd"/><path d="M1389 323C1389 410.261 1317.37 481 1229 481 1140.63 481 1069 410.261 1069 323 1069 235.739 1140.63 165 1229 165 1317.37 165 1389 235.739 1389 323Z" stroke="#FFFFFF" stroke-width="11.8402" stroke-miterlimit="8" fill="#C16859" fill-rule="evenodd"/><path d="M1549 836 1549 678C1549 654.3 1537 630.6 1517 614.8 1473 579.25 1417 555.55 1361 539.75 1321 527.9 1277 520 1229 520 1185 520 1141 527.9 1097 539.75 1041 555.55 985 583.2 941 614.8 921 630.6 909 654.3 909 678L909 836 1549 836Z" stroke="#FFFFFF" stroke-width="11.8402" stroke-miterlimit="8" fill="#C16859" fill-rule="evenodd"/></g></svg>