<svg width="691" height="834" xmlns="http://www.w3.org/2000/svg" xmlns:xlink="http://www.w3.org/1999/xlink" xml:space="preserve" overflow="hidden"><g transform="translate(-1903 -1485)"><path d="M2401.5 1810.5C2401.5 1895.55 2328.75 1964.5 2239 1964.5 2149.25 1964.5 2076.5 1895.55 2076.5 1810.5 2076.5 1725.45 2149.25 1656.5 2239 1656.5 2328.75 1656.5 2401.5 1725.45 2401.5 1810.5Z" stroke="#FFFFFF" stroke-width="14.6789" stroke-miterlimit="8" fill="#A8BBCB" fill-rule="evenodd"/><path d="M2563.5 2311.5 2563.5 2157.5C2563.5 2134.4 2551.33 2111.3 2531.05 2095.9 2486.43 2061.25 2429.64 2038.15 2372.86 2022.75 2332.29 2011.2 2287.67 2003.5 2239 2003.5 2194.38 2003.5 2149.76 2011.2 2105.14 2022.75 2048.36 2038.15 1991.57 2065.1 1946.95 2095.9 1926.67 2111.3 1914.5 2134.4 1914.5 2157.5L1914.5 2311.5 2563.5 2311.5Z" stroke="#FFFFFF" stroke-width="14.6789" stroke-miterlimit="8" fill="#A8BBCB" fill-rule="evenodd"/><path d="M2059 1593 2059 1637.33C2059 1658.16 2143.38 1679 2248 1679 2352.62 1679 2437 1658.16 2437 1637.33L2437 1593 2248 1630.51 2059 1593Z" stroke="#FFFFFF" stroke-width="20.1468" stroke-miterlimit="8" fill="#A8BBCB" fill-rule="evenodd"/><path d="M2248.5 1613.91 2543 1555.53 2248.5 1496 1954 1555.53 1991.83 1563.16 1991.83 1633.37C1991.83 1637.57 1997.9 1641 2005.33 1641 2012.76 1641 2018.84 1637.57 2018.84 1633.37L2018.84 1568.5 2248.5 1613.91Z" stroke="#FFFFFF" stroke-width="20.1468" stroke-miterlimit="8" fill="#A8BBCB" fill-rule="evenodd"/></g></svg>