<svg width="184" height="103" xmlns="http://www.w3.org/2000/svg" xmlns:xlink="http://www.w3.org/1999/xlink" xml:space="preserve" overflow="hidden"><g transform="translate(-641 -406)"><g><g><path d="M33.6896 19.5271 23.6042 29.2906C22.3167 30.5781 20.2781 30.4708 19.0979 29.2906 17.8104 28.0031 17.9177 25.9646 19.0979 24.7844L34.4406 9.76354C34.9771 9.22708 35.6208 8.90521 36.3719 8.90521 36.4792 8.90521 36.5865 8.90521 36.6937 8.90521 36.801 8.90521 36.9083 8.90521 37.1229 8.90521L37.3375 8.90521 37.5521 8.90521C38.0885 9.0125 38.625 9.33437 38.9469 9.76354L53.9677 25.1062C55.2552 26.3937 55.1479 28.4323 53.9677 29.6125 52.6802 30.9 50.6417 30.7927 49.4615 29.6125L40.2344 20.1708C36.2646 40.3417 41.8438 57.7229 56.9719 71.7781 64.4823 78.6448 73.1729 84.1167 82.7219 87.8719 84.4385 88.5156 85.2969 90.3396 84.6531 91.949 84.0094 93.6656 82.1854 94.524 80.576 93.8802 70.276 89.9104 60.8344 84.0094 52.6802 76.499 40.9854 65.7698 28.4323 47.2083 33.6896 19.5271Z" fill="#F3AC00" transform="matrix(-1.83697e-16 -1 1.78641 -3.28158e-16 641 509)"/></g></g></g></svg>