<svg width="188" height="195" xmlns="http://www.w3.org/2000/svg" xmlns:xlink="http://www.w3.org/1999/xlink" xml:space="preserve" overflow="hidden"><g transform="translate(-1002 248)"><path d="M62.8814 150.627C62.8814 151.385 62.0097 151.992 60.9105 151.992 59.6597 152.106 58.7879 151.499 58.7879 150.627 58.7879 149.869 59.6597 149.263 60.7589 149.263 61.896 149.149 62.8814 149.756 62.8814 150.627ZM51.0935 148.922C50.8282 149.68 51.5863 150.552 52.7234 150.779 53.7089 151.158 54.846 150.779 55.0734 150.021 55.3008 149.263 54.5806 148.391 53.4435 148.05 52.4581 147.785 51.3589 148.164 51.0935 148.922ZM67.8468 148.277C66.7476 148.543 65.9895 149.263 66.1032 150.135 66.2169 150.893 67.2024 151.385 68.3395 151.12 69.4387 150.855 70.1968 150.135 70.0831 149.377 69.9694 148.656 68.946 148.164 67.8468 148.277ZM92.7871 3.03226C40.2153 3.03226 0 42.9444 0 95.5161 0 137.551 26.4565 173.521 64.246 186.181 69.0976 187.052 70.8032 184.058 70.8032 181.594 70.8032 179.244 70.6895 166.281 70.6895 158.322 70.6895 158.322 44.1573 164.007 38.5855 147.027 38.5855 147.027 34.2645 135.997 28.0484 133.154 28.0484 133.154 19.3685 127.203 28.6548 127.317 28.6548 127.317 38.0927 128.075 43.2855 137.096 51.5863 151.727 65.4968 147.519 70.9169 145.018 71.7887 138.953 74.2524 134.746 76.9815 132.244 55.7935 129.894 34.4161 126.824 34.4161 90.3613 34.4161 79.9379 37.2968 74.7073 43.3613 68.0363 42.3758 65.5726 39.154 55.4145 44.3468 42.3 52.2685 39.8363 70.5 52.5339 70.5 52.5339 78.0806 50.4113 86.2298 49.3121 94.3032 49.3121 102.377 49.3121 110.526 50.4113 118.106 52.5339 118.106 52.5339 136.338 39.7984 144.26 42.3 149.452 55.4524 146.231 65.5726 145.245 68.0363 151.31 74.7452 155.024 79.9758 155.024 90.3613 155.024 126.938 132.699 129.856 111.511 132.244 114.998 135.239 117.955 140.924 117.955 149.831 117.955 162.605 117.841 178.41 117.841 181.519 117.841 183.982 119.585 186.977 124.398 186.105 162.302 173.521 188 137.551 188 95.5161 188 42.9444 145.359 3.03226 92.7871 3.03226ZM36.8419 133.76C36.3492 134.14 36.4629 135.011 37.1073 135.731 37.7137 136.338 38.5855 136.603 39.0782 136.11 39.571 135.731 39.4573 134.86 38.8129 134.14 38.2065 133.533 37.3347 133.268 36.8419 133.76ZM32.7484 130.69C32.4831 131.183 32.8621 131.79 33.6202 132.169 34.2266 132.548 34.9847 132.434 35.25 131.903 35.5153 131.41 35.1363 130.804 34.3782 130.425 33.6202 130.198 33.0137 130.311 32.7484 130.69ZM45.029 144.184C44.4226 144.677 44.65 145.814 45.5218 146.534 46.3935 147.406 47.4927 147.519 47.9855 146.913 48.4782 146.42 48.2508 145.283 47.4927 144.563 46.6589 143.691 45.5218 143.577 45.029 144.184ZM40.7081 138.612C40.1016 138.991 40.1016 139.977 40.7081 140.848 41.3145 141.72 42.3379 142.099 42.8306 141.72 43.4371 141.227 43.4371 140.242 42.8306 139.37 42.3 138.498 41.3145 138.119 40.7081 138.612Z" fill="#C16859" transform="matrix(1 0 0 1.00482 1002 -248)"/></g></svg>