<svg width="537" height="519" xmlns="http://www.w3.org/2000/svg" xmlns:xlink="http://www.w3.org/1999/xlink" xml:space="preserve" overflow="hidden"><defs><clipPath id="clip0"><rect x="2612" y="640" width="537" height="519"/></clipPath></defs><g clip-path="url(#clip0)" transform="translate(-2612 -640)"><path d="M2786 770 2961 770 2961 793 2786 793Z" fill="#419EAD" fill-rule="evenodd"/><path d="M2786 817 2961 817 2961 841 2786 841Z" fill="#419EAD" fill-rule="evenodd"/><path d="M2786 864 2961 864 2961 888 2786 888Z" fill="#419EAD" fill-rule="evenodd"/><path d="M3108.73 1109.46 2974.48 997.402 3108.73 885.345 3108.73 1109.46ZM2673.76 1123.61 2806.66 1013.33 2816.06 1005.66C2852.31 975.581 2909.36 975.581 2945.61 1005.66L2955.01 1013.33 3087.25 1123.61 2673.76 1123.61ZM2652.28 884.756 2786.53 996.813 2652.28 1108.87 2652.28 884.756ZM2746.25 734.364 3014.75 734.364 3014.75 930.758 2954.34 981.479C2910.71 951.99 2850.29 951.99 2806.66 981.479L2746.25 930.758 2746.25 734.364ZM3055.03 750.288 3055.03 698.978 2961.05 698.978 2880.5 640 2799.95 698.978 2705.98 698.978 2705.98 750.877 2612 829.317 2612 1159 3149 1159 3149 829.317 3055.03 750.288Z" fill="#419EAD" fill-rule="evenodd"/></g></svg>