<svg width="1009" height="609" xmlns="http://www.w3.org/2000/svg" xmlns:xlink="http://www.w3.org/1999/xlink" xml:space="preserve" overflow="hidden"><g transform="translate(-3216 792)"><g><g><g><path d="M494 38 37.8812 38C16.9812 38 0 55.2187 0 76.3562L0 531.644C0 552.781 16.9812 570 37.8812 570L494 570C514.9 570 532 552.781 532 531.644L532 76.3562C532 55.2187 514.9 38 494 38ZM160.787 494 81.9375 494 81.9375 240.112 160.906 240.112 160.906 494ZM121.362 205.437C96.0687 205.437 75.6437 184.894 75.6437 159.719 75.6437 134.544 96.0687 114 121.362 114 146.537 114 167.081 134.544 167.081 159.719 167.081 185.012 146.656 205.437 121.362 205.437ZM456.356 494 377.506 494 377.506 370.5C377.506 341.05 376.912 303.169 336.537 303.169 295.45 303.169 289.156 335.231 289.156 368.362L289.156 494 210.306 494 210.306 240.112 285.95 240.112 285.95 274.787 287.019 274.787C297.587 254.837 323.356 233.819 361.712 233.819 441.512 233.819 456.356 286.425 456.356 354.825L456.356 494Z" fill="#A8BBCB" transform="matrix(1 0 0 1.00165 3490 -792)"/></g></g></g><rect x="3218.5" y="-758.5" width="1004" height="539" stroke="#FFFFFF" stroke-width="4.58333" stroke-miterlimit="8" stroke-opacity="0.0509804" fill="none"/></g></svg>