<svg width="140" height="144" xmlns="http://www.w3.org/2000/svg" xmlns:xlink="http://www.w3.org/1999/xlink" xml:space="preserve" overflow="hidden"><g transform="translate(-622 -45)"><path d="M46.6594 111.769C46.6594 112.331 46.0125 112.781 45.1969 112.781 44.2687 112.866 43.6219 112.416 43.6219 111.769 43.6219 111.206 44.2687 110.756 45.0844 110.756 45.9281 110.672 46.6594 111.122 46.6594 111.769ZM37.9125 110.503C37.7156 111.066 38.2781 111.713 39.1219 111.881 39.8531 112.162 40.6969 111.881 40.8656 111.319 41.0344 110.756 40.5 110.109 39.6562 109.856 38.925 109.659 38.1094 109.941 37.9125 110.503ZM50.3438 110.025C49.5281 110.222 48.9656 110.756 49.05 111.403 49.1344 111.966 49.8656 112.331 50.7094 112.134 51.525 111.938 52.0875 111.403 52.0031 110.841 51.9188 110.306 51.1594 109.941 50.3438 110.025ZM68.85 2.25C29.8406 2.25 0 31.8656 0 70.875 0 102.066 19.6313 128.756 47.6719 138.15 51.2719 138.797 52.5375 136.575 52.5375 134.747 52.5375 133.003 52.4531 123.384 52.4531 117.478 52.4531 117.478 32.7656 121.697 28.6313 109.097 28.6313 109.097 25.425 100.912 20.8125 98.8031 20.8125 98.8031 14.3719 94.3875 21.2625 94.4719 21.2625 94.4719 28.2656 95.0344 32.1187 101.728 38.2781 112.584 48.6 109.463 52.6219 107.606 53.2687 103.106 55.0969 99.9844 57.1219 98.1281 41.4 96.3844 25.5375 94.1063 25.5375 67.05 25.5375 59.3156 27.675 55.4344 32.175 50.4844 31.4438 48.6562 29.0531 41.1187 32.9062 31.3875 38.7844 29.5594 52.3125 38.9813 52.3125 38.9813 57.9375 37.4062 63.9844 36.5906 69.975 36.5906 75.9656 36.5906 82.0125 37.4062 87.6375 38.9813 87.6375 38.9813 101.166 29.5312 107.044 31.3875 110.897 41.1469 108.506 48.6562 107.775 50.4844 112.275 55.4625 115.031 59.3438 115.031 67.05 115.031 94.1906 98.4656 96.3563 82.7438 98.1281 85.3312 100.35 87.525 104.569 87.525 111.178 87.525 120.656 87.4406 132.384 87.4406 134.691 87.4406 136.519 88.7344 138.741 92.3063 138.094 120.431 128.756 139.5 102.066 139.5 70.875 139.5 31.8656 107.859 2.25 68.85 2.25ZM27.3375 99.2531C26.9719 99.5344 27.0562 100.181 27.5344 100.716 27.9844 101.166 28.6313 101.362 28.9969 100.997 29.3625 100.716 29.2781 100.069 28.8 99.5344 28.35 99.0844 27.7031 98.8875 27.3375 99.2531ZM24.3 96.975C24.1031 97.3406 24.3844 97.7906 24.9469 98.0719 25.3969 98.3531 25.9594 98.2687 26.1562 97.875 26.3531 97.5094 26.0719 97.0594 25.5094 96.7781 24.9469 96.6094 24.4969 96.6937 24.3 96.975ZM33.4125 106.987C32.9625 107.353 33.1313 108.197 33.7781 108.731 34.425 109.378 35.2406 109.463 35.6063 109.013 35.9719 108.647 35.8031 107.803 35.2406 107.269 34.6219 106.622 33.7781 106.537 33.4125 106.987ZM30.2063 102.853C29.7563 103.134 29.7563 103.866 30.2063 104.513 30.6562 105.159 31.4156 105.441 31.7812 105.159 32.2313 104.794 32.2313 104.062 31.7812 103.416 31.3875 102.769 30.6562 102.487 30.2063 102.853Z" fill="#A0C8D0" transform="matrix(1.00358 0 0 1 622 45)"/></g></svg>