<svg width="660" height="660" xmlns="http://www.w3.org/2000/svg" xmlns:xlink="http://www.w3.org/1999/xlink" xml:space="preserve" overflow="hidden"><g transform="translate(-975 -66)"><g><g><g><path d="M376.071 28.9286 28.8382 28.9286C12.9275 28.9286 0 42.0368 0 58.1283L0 404.729C0 420.82 12.9275 433.928 28.8382 433.928L376.071 433.928C391.982 433.928 405 420.82 405 404.729L405 58.1283C405 42.0368 391.982 28.9286 376.071 28.9286ZM122.404 376.071 62.3772 376.071 62.3772 182.792 122.494 182.792 122.494 376.071ZM92.3906 156.395C73.135 156.395 57.5859 140.756 57.5859 121.59 57.5859 102.425 73.135 86.7857 92.3906 86.7857 111.556 86.7857 127.195 102.425 127.195 121.59 127.195 140.846 111.646 156.395 92.3906 156.395ZM347.414 376.071 287.387 376.071 287.387 282.054C287.387 259.634 286.935 230.796 256.199 230.796 224.92 230.796 220.128 255.204 220.128 280.426L220.128 376.071 160.102 376.071 160.102 182.792 217.687 182.792 217.687 209.19 218.501 209.19C226.547 194.002 246.164 178.001 275.364 178.001 336.114 178.001 347.414 218.049 347.414 270.12L347.414 376.071Z" fill="#A0C8D0" transform="matrix(1 0 0 1.00031 1104 160)"/></g></g></g></g></svg>