<svg width="1008" height="544" xmlns="http://www.w3.org/2000/svg" xmlns:xlink="http://www.w3.org/1999/xlink" xml:space="preserve" overflow="hidden"><g transform="translate(-3730 631)"><path d="M4300.61-471.149C4306.74-471.448 4312.87-474.045 4317.48-478.867 4322.1-483.688 4324.42-489.93 4324.45-496.06L4324.57-601.4C4324.59-607.529 4322.33-613.547 4318.14-617.556 4313.95-621.565 4307.46-623.929 4301.33-623.63L4289.85-623.07 4289.13-470.588 4300.61-471.149Z" fill="#DCB554" fill-rule="evenodd"/><path d="M4247.78-252.87C4244.72-252.72 4241.67-254.103 4239.76-255.925 4237.86-257.747 4236.34-260.738 4236.36-263.803L4236.87-453.428C4236.88-456.493 4238.43-459.633 4240.35-461.642 4242.27-463.651 4245.34-465.333 4248.4-465.482L4271.74-466.239 4272.46-618.72C4262.52-618.235 4253.33-617.786 4247.21-617.487 4232.29-617.142 4218.1-611.47 4207.34-600.986 4188.9-583.999 4176.55-562.712 4166.12-540.37 4157.99-519.672 4152.53-497.956 4148.6-476.315 4132.54-397.009 4130.63-316.479 4143.65-238.594 4145.5-225.278 4148.5-212.401 4152.27-199.562 4161.7-171.295 4174.96-144.747 4195.13-122.367 4208.45-107.313 4228.69-99.4913 4249.36-101.266L4270.02-102.275 4271.13-254.392 4247.78-252.87Z" fill="#DCB554" fill-rule="evenodd"/><path d="M4331.88-122.196 4332.38-227.937C4332.4-234.067 4330.14-240.085 4325.57-244.458 4321-248.831 4314.88-250.831 4308.76-250.532L4296.9-249.57 4296.18-97.0883 4307.66-97.6487C4313.78-97.9476 4319.91-100.545 4324.53-105.367 4329.14-110.189 4331.85-116.066 4331.88-122.196Z" fill="#DCB554" fill-rule="evenodd"/><rect x="3732.5" y="-628.5" width="1003" height="539" stroke="#FFFFFF" stroke-width="4.58333" stroke-miterlimit="8" stroke-opacity="0.0509804" fill="none"/></g></svg>