<svg width="538" height="522" xmlns="http://www.w3.org/2000/svg" xmlns:xlink="http://www.w3.org/1999/xlink" xml:space="preserve" overflow="hidden"><g transform="translate(-2587 -609)"><rect x="2710.5" y="690.5" width="283" height="438" stroke="#FFFFFF" stroke-width="4.58333" stroke-miterlimit="8" fill="#A0C8D0"/><path d="M2597 814.295C2680.25 814.295 2703.85 882.792 2773.34 946.214 2806.93 928.456 2829.16 909.852 2853.63 908.161 2878.1 906.47 2902.49 961.436 2945.39 941.141L3090.35 794 3111 1110 2597 1110 2597 814.295Z" fill="#A0C8D0" fill-rule="evenodd"/><path d="M2761 739 2936 739 2936 763 2761 763Z" fill="#419EAD" fill-rule="evenodd"/><path d="M2761 786 2936 786 2936 810 2761 810Z" fill="#419EAD" fill-rule="evenodd"/><path d="M2761 833 2936 833 2936 857 2761 857Z" fill="#419EAD" fill-rule="evenodd"/><path d="M3084.65 1078.46 2950.15 966.402 3084.65 854.345 3084.65 1078.46ZM2648.87 1092.61 2782.02 982.326 2791.44 974.659C2827.76 944.581 2884.92 944.581 2921.23 974.659L2930.65 982.326 3063.13 1092.61 2648.87 1092.61ZM2627.35 853.756 2761.85 965.813 2627.35 1077.87 2627.35 853.756ZM2721.5 703.364 2990.5 703.364 2990.5 899.758 2929.98 950.478C2886.26 920.99 2825.74 920.99 2782.02 950.478L2721.5 899.758 2721.5 703.364ZM3030.85 719.287 3030.85 667.978 2936.7 667.978 2856 609 2775.3 667.978 2681.15 667.978 2681.15 719.877 2587 798.317 2587 1128 3125 1128 3125 798.317 3030.85 719.287Z" fill="#419EAD" fill-rule="evenodd"/></g></svg>