<svg width="660" height="660" xmlns="http://www.w3.org/2000/svg" xmlns:xlink="http://www.w3.org/1999/xlink" xml:space="preserve" overflow="hidden"><g transform="translate(-1471 117)"><path d="M1752.54 102.271C1756.72 97.7845 1759.3 91.6435 1759.24 84.9706 1759.18 78.2973 1756.49 72.2039 1752.23 67.7932L1678.8-7.73606C1674.55-12.1468 1668.72-14.8748 1662.92-14.8226 1657.13-14.7703 1650.83-11.9329 1646.65-7.44615L1638.82 0.966825 1744.71 110.684 1752.54 102.271Z" fill="#A0C8D0" fill-rule="evenodd"/><path d="M1867.03 295.481C1864.94 297.725 1861.79 298.866 1859.15 298.889 1856.51 298.913 1853.34 297.829 1851.21 295.624L1719.25 159.447C1717.12 157.242 1716.04 153.915 1716.01 151.134 1715.99 148.354 1717.01 145.008 1719.1 142.764L1735.29 125.934 1629.4 16.2168C1622.61 23.5077 1616.35 30.238 1612.17 34.7248 1601.72 45.3857 1595.52 59.3451 1595.13 74.3645 1593.77 99.4028 1599.79 123.263 1607.91 146.547 1616.52 167.047 1627.77 186.41 1640.06 204.652 1683.9 272.662 1738.73 331.675 1802.41 378.373 1813.02 386.619 1824.16 393.749 1835.82 400.317 1862.3 413.982 1890.32 423.74 1920.39 425.693 1940.43 427.181 1960.39 418.659 1973.95 402.965L1988.05 387.822 1882.68 278.1 1867.03 295.481Z" fill="#A0C8D0" fill-rule="evenodd"/><path d="M2018.45 330.391 1945.02 254.306C1940.76 249.895 1934.94 247.167 1928.61 247.224 1922.28 247.281 1916.51 250.114 1912.33 254.6L1904.51 263.569 2010.4 373.286 2018.23 364.874C2022.41 360.387 2024.99 354.246 2024.93 347.573 2024.87 340.9 2022.71 334.802 2018.45 330.391Z" fill="#A0C8D0" fill-rule="evenodd"/></g></svg>