<svg width="726" height="827" xmlns="http://www.w3.org/2000/svg" xmlns:xlink="http://www.w3.org/1999/xlink" xml:space="preserve" overflow="hidden"><g transform="translate(-4913 246)"><path d="M5627 159.136C5627 87.7102 5593.6-16.9793 5521.87-16.9793L5368.52-16.9793C5364.72-26.1421 5358.14-33.2228 5350.12-36.7744 5341.93-40.7458 5332.76-40.7458 5324.56-36.7744 5318.03-43.8823 5309.54-47.8752 5300.71-47.9987 5290.78-48.1007 5281.26-43.2163 5274.47-34.5299 5265.35-39.3254 5254.97-39.3254 5245.85-34.5299 5239.06-30.8777 5233.42-24.7301 5229.74-16.9793 5229.74-16.9793 5004.15-16.9793 5003.47-16.3671 4954.48-9.73473 4917 63.7317 4917 156.483 4917 253.724 4958.15 329.945 5010.71 329.945L5210.92 329.945 5210.92 483 5296.11 403.922 5381.3 483 5381.3 329.945 5581.51 329.945C5590.92 329.945 5598.55 320.809 5598.55 309.538 5598.55 298.267 5590.92 289.131 5581.51 289.131 5556.83 290.459 5535.89 267.661 5534.65 238.112L5585.77 238.112C5605.7 238.112 5627 217.705 5627 159.136ZM5299.01 25.6717C5340.32 25.6717 5373.81 65.7824 5373.81 115.261 5373.81 164.74 5340.32 204.849 5299 204.848 5257.83 204.847 5224.39 164.986 5224.21 115.669 5224.02 66.1905 5257.35 25.8987 5298.66 25.6731 5298.78 25.6717 5298.89 25.6717 5299.01 25.6717ZM5194.39 23.8353C5194.22 26.4158 5194.22 29.0094 5194.39 31.5899 5176.19 40.1682 5167.2 64.7519 5174.28 86.5879 5168.15 94.505 5164.69 104.868 5164.57 115.669 5164.67 127.282 5168.74 138.342 5175.82 146.279 5171.82 157.17 5171.82 169.571 5175.82 180.462 5178.16 187.061 5181.85 192.85 5186.55 197.298L5090.96 197.298C5096.93 181.231 5100.06 163.862 5100.17 146.279 5100.17 95.2608 5089.77 52.8139 5072.31 23.8353ZM5010.71 289.131C4981.92 289.131 4951.08 235.868 4951.08 156.483 4951.08 77.0985 4981.92 23.8353 5010.71 23.8353 5042.83 23.8353 5066.09 74.8535 5066.09 146.279 5066.09 146.279 5065.49 197.298 5040.53 197.298 5028.43 197.298 5014.97 173.319 5014.97 141.177 5014.93 134.317 5015.53 127.471 5016.76 120.77 5018.81 109.753 5013.01 98.8344 5003.81 96.3835 4994.61 93.9326 4985.5 100.876 4983.45 111.893 4981.71 121.513 4980.85 131.333 4980.9 141.177 4980.9 195.563 5007.13 238.112 5040.53 238.112L5210.92 238.112 5210.92 289.131ZM5296.11 352.292 5244.99 399.738 5244.99 263.52C5246.97 265 5249.05 266.263 5251.21 267.295 5259.43 271.122 5268.55 271.122 5276.77 267.295 5283.34 274.595 5291.92 278.738 5300.88 278.927 5310.81 278.979 5320.31 274.103 5327.12 265.458 5333.46 268.654 5340.43 269.644 5347.23 268.315L5347.23 399.738ZM5381.3 289.131 5381.3 241.683C5383.9 240.795 5386.41 239.599 5388.8 238.112L5500.57 238.112C5500.57 256.419 5505.37 274.263 5514.29 289.131ZM5410.27 197.298C5418.35 192.817 5424.65 184.723 5427.82 174.747 5430.99 164.897 5430.99 153.987 5427.82 144.137 5433.84 136.368 5437.18 126.164 5437.19 115.566 5437.23 103.678 5433.16 92.2998 5425.94 84.1389 5429.91 73.2038 5429.91 60.7899 5425.94 49.8547 5422.43 40.0091 5415.86 32.181 5407.63 28.0187 5407.47 26.6007 5407.22 25.2014 5406.86 23.8353L5521.87 23.8353C5555.95 23.8353 5577.93 68.2211 5587.21 109.75 5598.03 158.524 5590.88 193.726 5585.77 197.298Z" stroke="#FFFFFF" stroke-width="7.84183" stroke-miterlimit="8" fill="#DCB554" fill-rule="evenodd"/><rect x="4933.5" y="-243.5" width="703" height="822" stroke="#FFFFFF" stroke-width="4.58333" stroke-miterlimit="8" stroke-opacity="0.0509804" fill="none"/></g></svg>