<svg width="673" height="829" xmlns="http://www.w3.org/2000/svg" xmlns:xlink="http://www.w3.org/1999/xlink" xml:space="preserve" overflow="hidden"><g transform="translate(-3061 1443)"><path d="M3538.3-998.489C3579.8-983.982 3619.32-967.541 3651.92-941.428 3665.76-930.79 3673.66-915.315 3673.66-897.907L3691.45-748.002C3692.43-741.232 3689.47-734.462 3683.54-730.593L3683.54-730.593C3666.74-719.955 3648.96-711.251 3630.19-705.448L3630.19-674.5 3656.86-674.5C3673.66-681.27 3690.46-689.007 3705.28-698.678L3705.28-698.678C3723.06-710.284 3732.94-731.56 3729.98-752.837L3714.17-898.874C3713.18-926.921 3700.34-953.034 3677.61-970.442 3641.05-1000.42 3597.58-1018.8 3552.13-1034.27L3503.72-1053.61C3499.76-1055.55 3497.79-1058.45 3497.79-1062.32L3497.79-1085.53C3535.33-1114.54 3557.07-1159.03 3557.07-1206.42L3557.07-1241.24C3563-1237.37 3569.91-1236.4 3576.83-1235.44L3560.03-1283.79C3558.06-1290.56 3556.08-1297.33 3555.09-1304.1 3547.19-1359.23 3513.6-1397.91 3467.16-1422.09 3463.21-1424.03 3458.27-1424.03 3454.31-1421.12L3445.42-1414.35 3435.54-1427.89C3432.58-1431.76 3428.62-1435.63 3423.68-1436.6 3414.79-1438.53 3405.9-1439.5 3397.01-1439.5 3318.95-1439.5 3253.74-1379.54 3239.91-1301.2L3239.91-1294.43 3239.91-1294.43 3239.91-1277.99C3239.91-1256.71 3235.95-1236.4 3227.06-1217.06L3210.26-1178.37C3210.26-1178.37 3222.12-1181.28 3241.88-1187.08 3246.82-1147.43 3267.57-1111.64 3299.19-1087.46L3299.19-1063.29C3299.19-1059.42 3297.21-1055.55 3293.26-1054.58L3244.85-1035.24C3199.4-1019.77 3155.92-1001.39 3119.36-971.409 3096.64-954.001 3082.81-927.888 3081.82-899.841L3065.02-752.837C3062.06-731.56 3071.94-710.284 3089.72-698.678 3104.54-689.007 3121.34-681.27 3138.14-674.5L3165.8-674.5 3165.8-704.481C3147.03-711.251 3129.24-718.988 3112.45-729.626 3106.52-733.495 3103.55-740.265 3104.54-747.035L3121.34-895.973 3121.34-897.907C3121.34-915.315 3130.23-930.79 3144.07-941.428 3176.67-967.541 3216.19-983.982 3257.69-998.489L3273.5-1003.32C3302.15-985.916 3347.6-975.277 3397.99-975.277 3448.38-975.277 3493.83-985.916 3523.48-1003.32L3538.3-998.489ZM3279.43-1198.68C3346.62-1220.93 3443.44-1259.61 3486.92-1313.77 3495.81-1300.23 3505.69-1287.66 3516.56-1275.09L3516.56-1207.39C3516.56-1143.56 3463.21-1091.33 3397.99-1091.33 3335.75-1091.33 3284.37-1137.76 3279.43-1198.68ZM3318.95-1024.6C3330.81-1033.31 3338.71-1047.81 3338.71-1063.29L3338.71-1064.25C3376.26-1048.78 3419.73-1048.78 3457.28-1064.25L3457.28-1063.29C3457.28-1048.78 3464.19-1034.27 3476.05-1024.6 3450.36-1016.86 3423.68-1013 3397.01-1013.96 3371.32-1013.96 3344.64-1017.83 3318.95-1024.6Z" stroke="#FFFFFF" stroke-width="7.054" stroke-miterlimit="8" fill="#C16859" fill-rule="evenodd"/><path d="M3611.41-894.381C3611.41-907.888 3600.54-918.5 3586.71-918.5L3586.71-918.5 3210.29-918.5C3196.46-918.5 3185.59-907.888 3185.59-894.381L3185.59-894.381 3185.59-654.16 3110.5-654.16 3110.5-641.618C3110.5-628.112 3121.37-617.5 3135.2-617.5L3661.8-617.5C3675.63-617.5 3686.5-628.112 3686.5-641.618L3686.5-654.16 3611.41-654.16 3611.41-894.381ZM3346.63-735.198 3332.8-721.692 3277.47-775.718 3332.8-829.744 3346.63-816.237 3305.13-775.718 3346.63-735.198ZM3384.17-714.939 3366.39-722.657 3412.83-831.673 3430.61-823.955 3384.17-714.939ZM3463.21-720.728 3449.38-734.234 3490.88-774.753 3449.38-815.272 3463.21-828.779 3518.54-774.753 3463.21-720.728Z" stroke="#FFFFFF" stroke-width="7.054" stroke-miterlimit="8" fill="#C16859" fill-rule="evenodd"/></g></svg>