<svg width="179" height="179" xmlns="http://www.w3.org/2000/svg" xmlns:xlink="http://www.w3.org/1999/xlink" xml:space="preserve" overflow="hidden"><g transform="translate(-742 -182)"><path d="M909.514 260.797C909.514 247.745 902.205 228.615 886.505 228.615L852.943 228.615C852.11 226.94 850.669 225.646 848.915 224.997 847.121 224.272 845.115 224.272 843.321 224.997 841.89 223.698 840.033 222.969 838.101 222.946 835.926 222.928 833.844 223.82 832.358 225.408 830.361 224.531 828.089 224.531 826.093 225.408 824.607 226.075 823.373 227.198 822.569 228.615 822.569 228.615 773.194 228.615 773.045 228.726 762.324 229.938 754.12 243.363 754.12 260.312 754.12 278.082 763.126 292.01 774.63 292.01L818.448 292.01 818.448 319.979 837.094 305.529 855.74 319.979 855.74 292.01 899.557 292.01C901.617 292.01 903.286 290.341 903.286 288.281 903.286 286.222 901.617 284.552 899.557 284.552 894.156 284.795 889.574 280.629 889.302 275.229L900.49 275.229C904.853 275.229 909.514 271.5 909.514 260.797ZM837.728 236.409C846.769 236.409 854.099 243.738 854.099 252.78 854.099 261.821 846.769 269.151 837.727 269.151 828.715 269.15 821.398 261.866 821.357 252.854 821.315 243.813 828.612 236.45 837.653 236.409 837.678 236.409 837.703 236.409 837.728 236.409ZM814.831 236.073C814.794 236.544 814.794 237.018 814.831 237.49 810.848 239.058 808.881 243.55 810.43 247.54 809.088 248.987 808.33 250.881 808.305 252.854 808.327 254.976 809.216 256.997 810.766 258.448 809.89 260.438 809.89 262.704 810.766 264.694 811.279 265.9 812.087 266.958 813.115 267.771L792.195 267.771C793.5 264.835 794.186 261.661 794.208 258.448 794.208 249.125 791.934 241.368 788.111 236.073ZM774.63 284.552C768.328 284.552 761.578 274.819 761.578 260.312 761.578 245.806 768.328 236.073 774.63 236.073 781.66 236.073 786.75 245.396 786.75 258.448 786.75 258.448 786.62 267.771 781.156 267.771 778.509 267.771 775.562 263.389 775.562 257.516 775.553 256.262 775.685 255.011 775.954 253.786 776.402 251.773 775.133 249.778 773.12 249.33 771.107 248.882 769.111 250.151 768.664 252.164 768.282 253.922 768.094 255.717 768.104 257.516 768.104 267.454 773.847 275.229 781.156 275.229L818.448 275.229 818.448 284.552ZM837.094 296.094 825.906 304.764 825.906 279.872C826.338 280.143 826.794 280.373 827.267 280.562 829.066 281.261 831.062 281.261 832.861 280.562 834.298 281.896 836.177 282.653 838.138 282.688 840.31 282.697 842.39 281.806 843.881 280.226 845.269 280.81 846.795 280.991 848.281 280.748L848.281 304.764ZM855.74 284.552 855.74 275.882C856.307 275.719 856.857 275.501 857.38 275.229L881.844 275.229C881.844 278.574 882.894 281.835 884.846 284.552ZM862.079 267.771C863.849 266.952 865.228 265.473 865.92 263.65 866.614 261.85 866.614 259.856 865.92 258.056 867.238 256.637 867.97 254.772 867.971 252.836 867.981 250.663 867.09 248.584 865.51 247.093 866.377 245.094 866.377 242.826 865.51 240.828 864.741 239.028 863.304 237.598 861.501 236.837 861.467 236.578 861.411 236.323 861.333 236.073L886.505 236.073C893.964 236.073 898.774 244.184 900.807 251.773 903.175 260.685 901.608 267.118 900.49 267.771Z" stroke="#FFFFFF" stroke-width="1.86458" fill="#A0C8D0"/></g></svg>