<svg width="709" height="715" xmlns="http://www.w3.org/2000/svg" xmlns:xlink="http://www.w3.org/1999/xlink" xml:space="preserve" overflow="hidden"><g transform="translate(-2116 -1746)"><path d="M169.865 605.604 169.865 103.396 376.656 103.396 376.656 258.49 539.135 258.49 539.135 605.604 169.865 605.604ZM420.969 121.859 513.286 214.177 420.969 214.177 420.969 121.859ZM420.969 59.0833 125.552 59.0833 125.552 649.917 583.448 649.917 583.448 221.562 420.969 59.0833Z" stroke="#FFFFFF" stroke-width="7.38539" fill="#A0C8D0" transform="matrix(1 0 0 1.00846 2116 1746)"/><g><g><g><path d="M150.667 70.6249C150.667 91.4277 133.803 108.292 113 108.292 92.1972 108.292 75.3333 91.4277 75.3333 70.6249 75.3333 49.8222 92.1972 32.9583 113 32.9583 133.803 32.9583 150.667 49.8222 150.667 70.6249Z" fill="#A0C8D0" transform="matrix(1 0 0 1.22124 2266 1859)"/><path d="M188.333 193.042 188.333 155.375C188.333 149.725 185.508 144.075 180.8 140.308 170.442 131.833 157.258 126.183 144.075 122.417 134.658 119.592 124.3 117.708 113 117.708 102.642 117.708 92.2833 119.592 81.9249 122.417 68.7416 126.183 55.5583 132.775 45.2 140.308 40.4916 144.075 37.6666 149.725 37.6666 155.375L37.6666 193.042 188.333 193.042Z" fill="#A0C8D0" transform="matrix(1 0 0 1.22124 2266 1859)"/></g></g></g><rect x="2300" y="2149" width="339" height="46.9998" fill="#A0C8D0"/><rect x="2297" y="2269" width="339" height="47.9998" fill="#A0C8D0"/></g></svg>