<svg width="553" height="580" xmlns="http://www.w3.org/2000/svg" xmlns:xlink="http://www.w3.org/1999/xlink" xml:space="preserve" overflow="hidden"><g transform="translate(-1565 -596)"><rect x="1567.5" y="741.5" width="548" height="395" stroke="#FFFFFF" stroke-width="4.58333" stroke-miterlimit="8" fill="#A0C8D0"/><path d="M1885.1 925.688C1885.1 944.044 1872.77 959.063 1857.7 959.063L1830.3 959.063C1815.23 959.063 1802.9 944.044 1802.9 925.688L1802.9 909 1570 909 1570 1142.62C1570 1160.98 1582.33 1176 1597.4 1176L2090.6 1176C2105.67 1176 2118 1160.98 2118 1142.62L2118 909 1885.1 909 1885.1 925.688Z" fill="#419EAD" fill-rule="evenodd"/><path d="M2090.6 708.433 1953.6 708.433 1953.6 654.299C1953.6 621.818 1932.36 596 1905.65 596L1782.35 596C1755.63 596 1734.4 621.818 1734.4 654.299L1734.4 708.433 1597.4 708.433C1582.33 708.433 1570 723.424 1570 741.746L1570 875 1802.9 875 1802.9 858.343 1885.1 858.343 1885.1 875 2118 875 2118 741.746C2118 723.424 2105.67 708.433 2090.6 708.433M1775.5 708.433 1775.5 654.299C1775.5 649.302 1778.24 645.97 1782.35 645.97L1905.65 645.97C1909.76 645.97 1912.5 649.302 1912.5 654.299L1912.5 708.433 1775.5 708.433Z" fill="#419EAD" fill-rule="evenodd"/></g></svg>