<svg width="198" height="198" xmlns="http://www.w3.org/2000/svg" xmlns:xlink="http://www.w3.org/1999/xlink" xml:space="preserve" overflow="hidden"><g transform="translate(-954 -281)"><path d="M1082.29 393.612C1090.95 396.706 1099.2 400.212 1106.01 405.781 1108.89 408.05 1110.54 411.35 1110.54 415.062L1114.26 447.031C1114.46 448.475 1113.84 449.919 1112.61 450.744L1112.61 450.744C1109.1 453.013 1105.39 454.869 1101.47 456.106L1101.47 462.706 1107.04 462.706C1110.54 461.263 1114.05 459.612 1117.14 457.55L1117.14 457.55C1120.86 455.075 1122.92 450.537 1122.3 446L1119 414.856C1118.79 408.875 1116.11 403.306 1111.37 399.594 1103.74 393.2 1094.66 389.281 1085.18 385.981L1075.07 381.856C1074.24 381.444 1073.83 380.825 1073.83 380L1073.83 375.05C1081.67 368.862 1086.21 359.375 1086.21 349.269L1086.21 341.844C1087.44 342.669 1088.89 342.875 1090.33 343.081L1086.82 332.769C1086.41 331.325 1086 329.881 1085.79 328.438 1084.14 316.681 1077.13 308.431 1067.44 303.275 1066.61 302.862 1065.58 302.862 1064.76 303.481L1062.9 304.925 1060.84 302.038C1060.22 301.212 1059.39 300.388 1058.36 300.181 1056.51 299.769 1054.65 299.562 1052.79 299.562 1036.5 299.562 1022.89 312.35 1020 329.056L1020 330.5 1020 330.5 1020 334.006C1020 338.544 1019.17 342.875 1017.32 347L1013.81 355.25C1013.81 355.25 1016.29 354.631 1020.41 353.394 1021.44 361.85 1025.78 369.481 1032.38 374.638L1032.38 379.794C1032.38 380.619 1031.96 381.444 1031.14 381.65L1021.03 385.775C1011.54 389.075 1002.47 392.994 994.838 399.388 990.094 403.1 987.206 408.669 987 414.65L983.494 446C982.875 450.537 984.938 455.075 988.65 457.55 991.744 459.612 995.25 461.263 998.756 462.706L1004.53 462.706 1004.53 456.312C1000.61 454.869 996.9 453.219 993.394 450.95 992.156 450.125 991.537 448.681 991.744 447.237L995.25 415.475 995.25 415.062C995.25 411.35 997.106 408.05 999.994 405.781 1006.8 400.212 1015.05 396.706 1023.71 393.612L1027.01 392.581C1032.99 396.294 1042.48 398.562 1053 398.562 1063.52 398.562 1073.01 396.294 1079.19 392.581L1082.29 393.612ZM1028.25 350.919C1042.28 346.175 1062.49 337.925 1071.56 326.375 1073.42 329.263 1075.48 331.944 1077.75 334.625L1077.75 349.062C1077.75 362.675 1066.61 373.812 1053 373.812 1040.01 373.812 1029.28 363.913 1028.25 350.919ZM1036.5 388.044C1038.97 386.188 1040.62 383.094 1040.62 379.794L1040.62 379.587C1048.46 382.888 1057.54 382.888 1065.38 379.587L1065.38 379.794C1065.38 382.888 1066.82 385.981 1069.29 388.044 1063.93 389.694 1058.36 390.519 1052.79 390.312 1047.43 390.312 1041.86 389.487 1036.5 388.044Z" stroke="#FFFFFF" stroke-width="2.0625" fill="#A0C8D0"/><path d="M1097.55 415.681C1097.55 412.794 1095.28 410.525 1092.39 410.525L1092.39 410.525 1013.81 410.525C1010.92 410.525 1008.66 412.794 1008.66 415.681L1008.66 415.681 1008.66 467.037 992.981 467.037 992.981 469.719C992.981 472.606 995.25 474.875 998.138 474.875L1108.07 474.875C1110.96 474.875 1113.22 472.606 1113.22 469.719L1113.22 467.037 1097.55 467.037 1097.55 415.681ZM1042.28 449.713 1039.39 452.6 1027.84 441.05 1039.39 429.5 1042.28 432.388 1033.61 441.05 1042.28 449.713ZM1050.11 454.044 1046.4 452.394 1056.09 429.088 1059.81 430.737 1050.11 454.044ZM1066.61 452.806 1063.72 449.919 1072.39 441.256 1063.72 432.594 1066.61 429.706 1078.16 441.256 1066.61 452.806Z" stroke="#FFFFFF" stroke-width="2.0625" fill="#A0C8D0"/></g></svg>