<svg width="427" height="549" xmlns="http://www.w3.org/2000/svg" xmlns:xlink="http://www.w3.org/1999/xlink" xml:space="preserve" overflow="hidden"><defs><clipPath id="clip0"><rect x="2560" y="-817" width="427" height="549"/></clipPath></defs><g clip-path="url(#clip0)" transform="translate(-2560 817)"><rect x="2574.5" y="-685.5" width="391" height="414" stroke="#172C51" stroke-width="4.58333" stroke-miterlimit="8" fill="#A8BBCB"/><rect x="2601" y="-795" width="251" height="375" fill="#A8BBCB"/><path d="M2846.37-757.574 2944.31-666.842 2817.72-530.191 2719.78-620.923Z" fill="#A8BBCB" fill-rule="evenodd"/><path d="M2601.32-309.175 2601.32-775.825 2794.16-775.825 2794.16-631.713 2945.68-631.713 2945.68-309.175 2601.32-309.175ZM2835.48-758.669 2921.57-672.888 2835.48-672.888 2835.48-758.669ZM2835.48-817 2560-817 2560-268 2987-268 2987-666.025 2835.48-817Z" fill="#516D88" fill-rule="evenodd"/><g><g><g><path d="M140 65.625C140 84.955 124.33 100.625 105 100.625 85.67 100.625 70 84.955 70 65.625 70 46.295 85.67 30.625 105 30.625 124.33 30.625 140 46.295 140 65.625Z" fill="#516D88" transform="matrix(1 0 0 1.20952 2583 -771)"/><path d="M175 179.375 175 144.375C175 139.125 172.375 133.875 168 130.375 158.375 122.5 146.125 117.25 133.875 113.75 125.125 111.125 115.5 109.375 105 109.375 95.375 109.375 85.75 111.125 76.125 113.75 63.875 117.25 51.625 123.375 42 130.375 37.625 133.875 35 139.125 35 144.375L35 179.375 175 179.375Z" fill="#516D88" transform="matrix(1 0 0 1.20952 2583 -771)"/></g></g></g><rect x="2614" y="-504" width="316" height="44" fill="#516D88"/><rect x="2611" y="-393" width="316" height="44" fill="#516D88"/></g></svg>