<svg width="1390" height="1677" xmlns="http://www.w3.org/2000/svg" xmlns:xlink="http://www.w3.org/1999/xlink" xml:space="preserve" overflow="hidden"><defs><filter id="fx0" x="-10%" y="-10%" width="120%" height="120%" filterUnits="userSpaceOnUse" primitiveUnits="userSpaceOnUse"><feComponentTransfer color-interpolation-filters="sRGB"><feFuncR type="discrete" tableValues="0 0"/><feFuncG type="discrete" tableValues="0 0"/><feFuncB type="discrete" tableValues="0 0"/><feFuncA type="linear" slope="0.4" intercept="0"/></feComponentTransfer><feGaussianBlur stdDeviation="6.11111 6.11111"/></filter><linearGradient x1="2141" y1="918" x2="2141" y2="1692" gradientUnits="userSpaceOnUse" spreadMethod="reflect" id="fill1"><stop offset="0" stop-color="#F1BA04"/><stop offset="0.00392157" stop-color="#F0BA04" stop-opacity="0.996078"/><stop offset="0.00784314" stop-color="#F1BA04" stop-opacity="0.992157"/><stop offset="0.0117647" stop-color="#F1BA04" stop-opacity="0.988235"/><stop offset="0.0156863" stop-color="#F1BA04" stop-opacity="0.984314"/><stop offset="0.0196078" stop-color="#F1BA04" stop-opacity="0.980392"/><stop offset="0.0235294" stop-color="#F1BA04" stop-opacity="0.976471"/><stop offset="0.027451" stop-color="#F1BA04" stop-opacity="0.972549"/><stop offset="0.0313726" stop-color="#F0BA04" stop-opacity="0.968627"/><stop offset="0.0352941" stop-color="#F1BA04" stop-opacity="0.964706"/><stop offset="0.0392157" stop-color="#F1BA04" stop-opacity="0.960784"/><stop offset="0.0431373" stop-color="#F1BA04" stop-opacity="0.956863"/><stop offset="0.0470588" stop-color="#F1BA04" stop-opacity="0.952941"/><stop offset="0.0509804" stop-color="#F1BA04" stop-opacity="0.94902"/><stop offset="0.054902" stop-color="#F1BA04" stop-opacity="0.945098"/><stop offset="0.0588235" stop-color="#F1BA04" stop-opacity="0.941176"/><stop offset="0.0627451" stop-color="#F1B904" stop-opacity="0.937255"/><stop offset="0.0666667" stop-color="#F1BA04" stop-opacity="0.933333"/><stop offset="0.0705882" stop-color="#F1BA04" stop-opacity="0.929412"/><stop offset="0.0745098" stop-color="#F1B904" stop-opacity="0.92549"/><stop offset="0.0784314" stop-color="#F1BA04" stop-opacity="0.921569"/><stop offset="0.0823529" stop-color="#F1BA04" stop-opacity="0.917647"/><stop offset="0.0862745" stop-color="#F1BA04" stop-opacity="0.913725"/><stop offset="0.0901961" stop-color="#F0BA04" stop-opacity="0.909804"/><stop offset="0.0941176" stop-color="#F0B904" stop-opacity="0.905882"/><stop offset="0.0980392" stop-color="#F1BA04" stop-opacity="0.901961"/><stop offset="0.101961" stop-color="#F1BA04" stop-opacity="0.898039"/><stop offset="0.105882" stop-color="#F1BA04" stop-opacity="0.894118"/><stop offset="0.109804" stop-color="#F1BA04" stop-opacity="0.890196"/><stop offset="0.113725" stop-color="#F1BA04" stop-opacity="0.886275"/><stop offset="0.117647" stop-color="#F1BA04" stop-opacity="0.882353"/><stop offset="0.121569" stop-color="#F1BA04" stop-opacity="0.878431"/><stop offset="0.12549" stop-color="#F1B904" stop-opacity="0.87451"/><stop offset="0.129412" stop-color="#F1BA04" stop-opacity="0.870588"/><stop offset="0.133333" stop-color="#F0BA04" stop-opacity="0.866667"/><stop offset="0.137255" stop-color="#F1BA04" stop-opacity="0.862745"/><stop offset="0.141176" stop-color="#F0BA04" stop-opacity="0.858824"/><stop offset="0.145098" stop-color="#F1BA04" stop-opacity="0.854902"/><stop offset="0.14902" stop-color="#F1BA04" stop-opacity="0.85098"/><stop offset="0.152941" stop-color="#F1BA04" stop-opacity="0.847059"/><stop offset="0.156863" stop-color="#F1B904" stop-opacity="0.843137"/><stop offset="0.160784" stop-color="#F1BA04" stop-opacity="0.839216"/><stop offset="0.164706" stop-color="#F1BA04" stop-opacity="0.835294"/><stop offset="0.168627" stop-color="#F1BA04" stop-opacity="0.831373"/><stop offset="0.172549" stop-color="#F1BA04" stop-opacity="0.827451"/><stop offset="0.176471" stop-color="#F1BA04" stop-opacity="0.823529"/><stop offset="0.180392" stop-color="#F1BA04" stop-opacity="0.819608"/><stop offset="0.184314" stop-color="#F1BA04" stop-opacity="0.815686"/><stop offset="0.188235" stop-color="#F1BA04" stop-opacity="0.811765"/><stop offset="0.192157" stop-color="#F1BA04" stop-opacity="0.807843"/><stop offset="0.196078" stop-color="#F0BA04" stop-opacity="0.803922"/><stop offset="0.2" stop-color="#F1BA04" stop-opacity="0.8"/><stop offset="0.203922" stop-color="#F1BA04" stop-opacity="0.796078"/><stop offset="0.207843" stop-color="#F0BA04" stop-opacity="0.792157"/><stop offset="0.211765" stop-color="#F1BA04" stop-opacity="0.788235"/><stop offset="0.215686" stop-color="#F1BA04" stop-opacity="0.784314"/><stop offset="0.219608" stop-color="#F1BA04" stop-opacity="0.780392"/><stop offset="0.223529" stop-color="#F1BA04" stop-opacity="0.776471"/><stop offset="0.227451" stop-color="#F1BA04" stop-opacity="0.772549"/><stop offset="0.231373" stop-color="#F1BA04" stop-opacity="0.768627"/><stop offset="0.235294" stop-color="#F1BA04" stop-opacity="0.764706"/><stop offset="0.239216" stop-color="#F1B904" stop-opacity="0.760784"/><stop offset="0.243137" stop-color="#F1BA04" stop-opacity="0.756863"/><stop offset="0.247059" stop-color="#F1BA04" stop-opacity="0.752941"/><stop offset="0.25098" stop-color="#F1BA04" stop-opacity="0.74902"/><stop offset="0.254902" stop-color="#F1BA04" stop-opacity="0.745098"/><stop offset="0.258824" stop-color="#F1BA04" stop-opacity="0.741176"/><stop offset="0.262745" stop-color="#F1BA04" stop-opacity="0.737255"/><stop offset="0.266667" stop-color="#F1B904" stop-opacity="0.733333"/><stop offset="0.270588" stop-color="#F1BA04" stop-opacity="0.729412"/><stop offset="0.27451" stop-color="#F1BA04" stop-opacity="0.72549"/><stop offset="0.278431" stop-color="#F1BA04" stop-opacity="0.721569"/><stop offset="0.282353" stop-color="#F1BA04" stop-opacity="0.717647"/><stop offset="0.286275" stop-color="#F1BA04" stop-opacity="0.713725"/><stop offset="0.290196" stop-color="#F1BA04" stop-opacity="0.709804"/><stop offset="0.294118" stop-color="#F1BA04" stop-opacity="0.705882"/><stop offset="0.298039" stop-color="#F1BA04" stop-opacity="0.701961"/><stop offset="0.301961" stop-color="#F0BA04" stop-opacity="0.698039"/><stop offset="0.305882" stop-color="#F1BA04" stop-opacity="0.694118"/><stop offset="0.309804" stop-color="#F1BA04" stop-opacity="0.690196"/><stop offset="0.313726" stop-color="#F1B904" stop-opacity="0.686275"/><stop offset="0.317647" stop-color="#F1BA04" stop-opacity="0.682353"/><stop offset="0.321569" stop-color="#F1BA04" stop-opacity="0.678431"/><stop offset="0.32549" stop-color="#F1BA04" stop-opacity="0.67451"/><stop offset="0.329412" stop-color="#F1BA04" stop-opacity="0.670588"/><stop offset="0.333333" stop-color="#F1BA04" stop-opacity="0.666667"/><stop offset="0.337255" stop-color="#F1BA04" stop-opacity="0.662745"/><stop offset="0.341176" stop-color="#F1BA04" stop-opacity="0.658823"/><stop offset="0.345098" stop-color="#F1BA04" stop-opacity="0.654902"/><stop offset="0.34902" stop-color="#F1BA04" stop-opacity="0.65098"/><stop offset="0.352941" stop-color="#F1BA04" stop-opacity="0.647059"/><stop offset="0.356863" stop-color="#F1BA04" stop-opacity="0.643137"/><stop offset="0.360784" stop-color="#F1BA04" stop-opacity="0.639216"/><stop offset="0.364706" stop-color="#F0BA04" stop-opacity="0.635294"/><stop offset="0.368627" stop-color="#F1BA04" stop-opacity="0.631373"/><stop offset="0.372549" stop-color="#F1BA04" stop-opacity="0.627451"/><stop offset="0.376471" stop-color="#F1BA04" stop-opacity="0.623529"/><stop offset="0.380392" stop-color="#F1BA04" stop-opacity="0.619608"/><stop offset="0.384314" stop-color="#F1BA04" stop-opacity="0.615686"/><stop offset="0.388235" stop-color="#F1BA04" stop-opacity="0.611765"/><stop offset="0.392157" stop-color="#F1BA04" stop-opacity="0.607843"/><stop offset="0.396078" stop-color="#F1B904" stop-opacity="0.603922"/><stop offset="0.4" stop-color="#F1BA04" stop-opacity="0.6"/><stop offset="0.403922" stop-color="#F1BA04" stop-opacity="0.596078"/><stop offset="0.407843" stop-color="#F1BA04" stop-opacity="0.592157"/><stop offset="0.411765" stop-color="#F1BA04" stop-opacity="0.588235"/><stop offset="0.415686" stop-color="#F1BA04" stop-opacity="0.584314"/><stop offset="0.419608" stop-color="#F1BA04" stop-opacity="0.580392"/><stop offset="0.423529" stop-color="#F1BA04" stop-opacity="0.576471"/><stop offset="0.427451" stop-color="#F1BA04" stop-opacity="0.572549"/><stop offset="0.431373" stop-color="#F1BA04" stop-opacity="0.568627"/><stop offset="0.435294" stop-color="#F1BA03" stop-opacity="0.564706"/><stop offset="0.439216" stop-color="#F1BA04" stop-opacity="0.560784"/><stop offset="0.443137" stop-color="#F1BA04" stop-opacity="0.556863"/><stop offset="0.447059" stop-color="#F1BA04" stop-opacity="0.552941"/><stop offset="0.45098" stop-color="#F1BA04" stop-opacity="0.54902"/><stop offset="0.454902" stop-color="#F1BA04" stop-opacity="0.545098"/><stop offset="0.458824" stop-color="#F1B904" stop-opacity="0.541176"/><stop offset="0.462745" stop-color="#F1BA04" stop-opacity="0.537255"/><stop offset="0.466667" stop-color="#F1BA04" stop-opacity="0.533333"/><stop offset="0.470588" stop-color="#F1BA04" stop-opacity="0.529412"/><stop offset="0.47451" stop-color="#F1BA04" stop-opacity="0.52549"/><stop offset="0.478431" stop-color="#F1BA04" stop-opacity="0.521569"/><stop offset="0.482353" stop-color="#F1B904" stop-opacity="0.517647"/><stop offset="0.486275" stop-color="#F1B904" stop-opacity="0.513726"/><stop offset="0.490196" stop-color="#F1BA04" stop-opacity="0.509804"/><stop offset="0.494118" stop-color="#F1BA04" stop-opacity="0.505882"/><stop offset="0.498039" stop-color="#F1B904" stop-opacity="0.501961"/><stop offset="0.501961" stop-color="#F1BA04" stop-opacity="0.498039"/><stop offset="0.505882" stop-color="#F1BA04" stop-opacity="0.494118"/><stop offset="0.509804" stop-color="#F1B904" stop-opacity="0.490196"/><stop offset="0.513726" stop-color="#F1BA04" stop-opacity="0.486274"/><stop offset="0.517647" stop-color="#F1BA04" stop-opacity="0.482353"/><stop offset="0.521569" stop-color="#F1BA04" stop-opacity="0.478431"/><stop offset="0.52549" stop-color="#F0B904" stop-opacity="0.47451"/><stop offset="0.529412" stop-color="#F1B904" stop-opacity="0.470588"/><stop offset="0.533333" stop-color="#F1B904" stop-opacity="0.466667"/><stop offset="0.537255" stop-color="#F1B904" stop-opacity="0.462745"/><stop offset="0.541176" stop-color="#F1BA04" stop-opacity="0.458824"/><stop offset="0.545098" stop-color="#F1BA04" stop-opacity="0.454902"/><stop offset="0.54902" stop-color="#F1BA04" stop-opacity="0.45098"/><stop offset="0.552941" stop-color="#F1B903" stop-opacity="0.447059"/><stop offset="0.556863" stop-color="#F1BA04" stop-opacity="0.443137"/><stop offset="0.560784" stop-color="#F1BA04" stop-opacity="0.439216"/><stop offset="0.564706" stop-color="#F1BA04" stop-opacity="0.435294"/><stop offset="0.568627" stop-color="#F1BA04" stop-opacity="0.431373"/><stop offset="0.572549" stop-color="#F1BA04" stop-opacity="0.427451"/><stop offset="0.576471" stop-color="#F1BA04" stop-opacity="0.423529"/><stop offset="0.580392" stop-color="#F1BA04" stop-opacity="0.419608"/><stop offset="0.584314" stop-color="#F1B904" stop-opacity="0.415686"/><stop offset="0.588235" stop-color="#F1B904" stop-opacity="0.411765"/><stop offset="0.592157" stop-color="#F1B904" stop-opacity="0.407843"/><stop offset="0.596078" stop-color="#F1BA04" stop-opacity="0.403922"/><stop offset="0.6" stop-color="#F1BA04" stop-opacity="0.4"/><stop offset="0.603922" stop-color="#F1BA04" stop-opacity="0.396078"/><stop offset="0.607843" stop-color="#F1BA04" stop-opacity="0.392157"/><stop offset="0.611765" stop-color="#F1BA04" stop-opacity="0.388235"/><stop offset="0.615686" stop-color="#F0B904" stop-opacity="0.384314"/><stop offset="0.619608" stop-color="#F1BA04" stop-opacity="0.380392"/><stop offset="0.623529" stop-color="#F1BA04" stop-opacity="0.376471"/><stop offset="0.627451" stop-color="#F1BA04" stop-opacity="0.372549"/><stop offset="0.631373" stop-color="#F1B904" stop-opacity="0.368627"/><stop offset="0.635294" stop-color="#F0BA03" stop-opacity="0.364706"/><stop offset="0.639216" stop-color="#F1BA04" stop-opacity="0.360784"/><stop offset="0.643137" stop-color="#F1BA04" stop-opacity="0.356863"/><stop offset="0.647059" stop-color="#F0BA04" stop-opacity="0.352941"/><stop offset="0.65098" stop-color="#F1BA04" stop-opacity="0.34902"/><stop offset="0.654902" stop-color="#F0BA04" stop-opacity="0.345098"/><stop offset="0.658824" stop-color="#F1BA04" stop-opacity="0.341176"/><stop offset="0.662745" stop-color="#F1BA04" stop-opacity="0.337255"/><stop offset="0.666667" stop-color="#F1BA04" stop-opacity="0.333333"/><stop offset="0.670588" stop-color="#F1BA04" stop-opacity="0.329412"/><stop offset="0.67451" stop-color="#F1BA04" stop-opacity="0.32549"/><stop offset="0.678431" stop-color="#F1BA04" stop-opacity="0.321569"/><stop offset="0.682353" stop-color="#F1BA04" stop-opacity="0.317647"/><stop offset="0.686275" stop-color="#F1BA04" stop-opacity="0.313725"/><stop offset="0.690196" stop-color="#F1BA04" stop-opacity="0.309804"/><stop offset="0.694118" stop-color="#F1BA04" stop-opacity="0.305882"/><stop offset="0.698039" stop-color="#F1BA04" stop-opacity="0.301961"/><stop offset="0.701961" stop-color="#F1BA04" stop-opacity="0.298039"/><stop offset="0.705882" stop-color="#F1BA04" stop-opacity="0.294118"/><stop offset="0.709804" stop-color="#F1BA04" stop-opacity="0.290196"/><stop offset="0.713726" stop-color="#F1BA04" stop-opacity="0.286274"/><stop offset="0.717647" stop-color="#F1BA04" stop-opacity="0.282353"/><stop offset="0.721569" stop-color="#F1BA04" stop-opacity="0.278431"/><stop offset="0.72549" stop-color="#F1BA04" stop-opacity="0.27451"/><stop offset="0.729412" stop-color="#F1BA04" stop-opacity="0.270588"/><stop offset="0.733333" stop-color="#F1BA04" stop-opacity="0.266667"/><stop offset="0.737255" stop-color="#F1BA04" stop-opacity="0.262745"/><stop offset="0.741176" stop-color="#F1BA04" stop-opacity="0.258824"/><stop offset="0.745098" stop-color="#F1BA04" stop-opacity="0.254902"/><stop offset="0.74902" stop-color="#F1BA04" stop-opacity="0.25098"/><stop offset="0.752941" stop-color="#F1BA04" stop-opacity="0.247059"/><stop offset="0.756863" stop-color="#F1BA04" stop-opacity="0.243137"/><stop offset="0.760784" stop-color="#F1BA04" stop-opacity="0.239216"/><stop offset="0.764706" stop-color="#F1BA04" stop-opacity="0.235294"/><stop offset="0.768627" stop-color="#F1BA04" stop-opacity="0.231373"/><stop offset="0.772549" stop-color="#F1BA04" stop-opacity="0.227451"/><stop offset="0.776471" stop-color="#F1BA04" stop-opacity="0.223529"/><stop offset="0.780392" stop-color="#F1BA04" stop-opacity="0.219608"/><stop offset="0.784314" stop-color="#F1BA04" stop-opacity="0.215686"/><stop offset="0.788235" stop-color="#F1BA04" stop-opacity="0.211765"/><stop offset="0.792157" stop-color="#F1BA04" stop-opacity="0.207843"/><stop offset="0.796078" stop-color="#F1BA04" stop-opacity="0.203922"/><stop offset="0.8" stop-color="#F1BA04" stop-opacity="0.2"/><stop offset="0.803922" stop-color="#F1BA04" stop-opacity="0.196078"/><stop offset="0.807843" stop-color="#F1BA04" stop-opacity="0.192157"/><stop offset="0.811765" stop-color="#F1BA04" stop-opacity="0.188235"/><stop offset="0.815686" stop-color="#F1BA04" stop-opacity="0.184314"/><stop offset="0.819608" stop-color="#F1BA04" stop-opacity="0.180392"/><stop offset="0.823529" stop-color="#F1BA04" stop-opacity="0.176471"/><stop offset="0.827451" stop-color="#F1BA04" stop-opacity="0.172549"/><stop offset="0.831373" stop-color="#F1BA04" stop-opacity="0.168627"/><stop offset="0.835294" stop-color="#F1BA04" stop-opacity="0.164706"/><stop offset="0.839216" stop-color="#F1BA04" stop-opacity="0.160784"/><stop offset="0.843137" stop-color="#F1BA04" stop-opacity="0.156863"/><stop offset="0.847059" stop-color="#F1BA04" stop-opacity="0.152941"/><stop offset="0.85098" stop-color="#F1BA04" stop-opacity="0.14902"/><stop offset="0.854902" stop-color="#F1BA04" stop-opacity="0.145098"/><stop offset="0.858824" stop-color="#F1BA04" stop-opacity="0.141176"/><stop offset="0.862745" stop-color="#F1BA04" stop-opacity="0.137255"/><stop offset="0.866667" stop-color="#F1BA04" stop-opacity="0.133333"/><stop offset="0.870588" stop-color="#F1BA04" stop-opacity="0.129412"/><stop offset="0.87451" stop-color="#F1BA04" stop-opacity="0.12549"/><stop offset="0.878431" stop-color="#F1BA04" stop-opacity="0.121569"/><stop offset="0.882353" stop-color="#F1BA04" stop-opacity="0.117647"/><stop offset="0.886275" stop-color="#F1BA04" stop-opacity="0.113725"/><stop offset="0.890196" stop-color="#F1BA04" stop-opacity="0.109804"/><stop offset="0.894118" stop-color="#F1BA04" stop-opacity="0.105882"/><stop offset="0.898039" stop-color="#F1BA04" stop-opacity="0.101961"/><stop offset="0.901961" stop-color="#F1BA04" stop-opacity="0.0980392"/><stop offset="0.905882" stop-color="#F1BA04" stop-opacity="0.0941176"/><stop offset="0.909804" stop-color="#F1BA04" stop-opacity="0.0901961"/><stop offset="0.913725" stop-color="#F1BA04" stop-opacity="0.0862745"/><stop offset="0.917647" stop-color="#F1BA04" stop-opacity="0.0823529"/><stop offset="0.921569" stop-color="#F1BA04" stop-opacity="0.0784314"/><stop offset="0.92549" stop-color="#F1BA04" stop-opacity="0.0745098"/><stop offset="0.929412" stop-color="#F1BA04" stop-opacity="0.0705882"/><stop offset="0.933333" stop-color="#F1BA04" stop-opacity="0.0666667"/><stop offset="0.937255" stop-color="#F1BA04" stop-opacity="0.0627451"/><stop offset="0.941176" stop-color="#F1BA04" stop-opacity="0.0588235"/><stop offset="0.945098" stop-color="#F1BA04" stop-opacity="0.054902"/><stop offset="0.94902" stop-color="#F1BA04" stop-opacity="0.0509804"/><stop offset="0.952941" stop-color="#F1BA04" stop-opacity="0.0470588"/><stop offset="0.956863" stop-color="#F1BA04" stop-opacity="0.0431373"/><stop offset="0.960784" stop-color="#F1BA04" stop-opacity="0.0392157"/><stop offset="0.964706" stop-color="#F1BA04" stop-opacity="0.0352941"/><stop offset="0.968627" stop-color="#F1BA04" stop-opacity="0.0313725"/><stop offset="0.972549" stop-color="#F1BA04" stop-opacity="0.027451"/><stop offset="0.976471" stop-color="#F1BA04" stop-opacity="0.0235294"/><stop offset="0.980392" stop-color="#F1BA04" stop-opacity="0.0196078"/><stop offset="0.984314" stop-color="#F1BA04" stop-opacity="0.0156863"/><stop offset="0.988235" stop-color="#F1BA04" stop-opacity="0.0117647"/><stop offset="0.992157" stop-color="#F1BA04" stop-opacity="0.00784314"/><stop offset="0.996078" stop-color="#F1BA04" stop-opacity="0.00392157"/><stop offset="1" stop-color="#F1BA04" stop-opacity="0"/></linearGradient></defs><g transform="translate(-1446 -331)"><path d="M1979.57 918 2327.81 936.524 2836 1691.95 1446 1692 1979.57 918Z" fill="url(#fill1)" fill-rule="evenodd"/><g filter="url(#fx0)" transform="translate(1533 1563)"><g><path d="M366.281 48.7415C313.006 64.7872 250.565 92.2941 203.591 117.509 156.617 142.723 113.08 177.107 84.437 200.03 55.7943 222.952 42.4276 240.144 31.7344 255.043 21.0413 269.943 20.2773 278.157 20.2773 289.427 20.2773 300.697 22.7597 312.159 31.7344 322.665 40.7092 333.171 43.9554 341.767 74.1257 352.464 104.296 363.161 135.23 378.252 212.756 386.847 290.283 395.443 453.737 401.174 539.283 404.039 624.83 406.904 667.412 405.567 726.034 404.039 784.656 402.511 831.439 400.601 891.016 394.87 950.593 389.14 1037.09 381.69 1083.5 369.656 1129.9 357.621 1154.91 341.193 1169.42 322.665 1183.94 304.136 1191 287.326 1170.57 258.482 1150.14 229.638 1091.32 181.31 1046.83 149.6 1002.34 117.891 951.548 88.4738 903.619 68.2256 855.69 47.9773 822.655 35.9432 759.26 28.1113 695.864 20.2794 588.74 17.7962 523.244 21.2346 457.747 24.6729 419.557 32.6958 366.281 48.7415Z" fill="#F04768" fill-rule="evenodd"/></g></g><path d="M1909 1602.02C1855.73 1618.06 1793.29 1645.57 1746.31 1670.79 1699.34 1696 1655.8 1730.38 1627.16 1753.31 1598.52 1776.23 1585.15 1793.42 1574.46 1808.32 1563.76 1823.22 1563 1831.43 1563 1842.7 1563 1853.97 1565.48 1865.44 1574.46 1875.94 1583.43 1886.45 1586.68 1895.04 1616.85 1905.74 1647.02 1916.44 1677.95 1931.53 1755.48 1940.12 1833.01 1948.72 1996.46 1954.45 2082.01 1957.32 2167.55 1960.18 2210.13 1958.84 2268.76 1957.32 2327.38 1955.79 2374.16 1953.88 2433.74 1948.15 2493.32 1942.42 2579.82 1934.97 2626.22 1922.93 2672.62 1910.9 2697.63 1894.47 2712.15 1875.94 2726.66 1857.41 2733.72 1840.6 2713.29 1811.76 2692.86 1782.92 2634.05 1734.59 2589.56 1702.88 2545.06 1671.17 2494.27 1641.75 2446.34 1621.5 2398.41 1601.25 2365.38 1589.22 2301.98 1581.39 2238.59 1573.56 2131.46 1571.07 2065.97 1574.51 2000.47 1577.95 1962.28 1585.97 1909 1602.02Z" fill="#F04768" fill-rule="evenodd"/><path d="M1955.18 1539.86C1953.31 1532.56 1952.72 1529.51 1952.63 1523.16 1952.54 1516.82 1951.91 1506.82 1954.63 1501.77 1957.35 1496.73 1961.89 1490.9 1968.96 1492.9 1976.02 1494.9 1991.49 1508.56 1997.02 1513.77 2002.55 1518.99 2001.1 1519.6 2002.12 1524.21 2003.14 1528.82 2003.06 1535.34 2003.14 1541.43 2003.23 1547.51 2006.46 1555.25 2002.63 1560.73 1998.81 1566.21 1986.65 1573.25 1980.18 1574.3 1973.72 1575.34 1967.85 1572.3 1963.85 1566.99 1959.86 1561.69 1957.05 1547.17 1955.18 1539.86Z" stroke="#3C3D5D" stroke-width="4.58333" stroke-miterlimit="8" fill="#F8DEC1" fill-rule="evenodd"/><path d="M2293.5 1500.14C2301.39 1493.88 2305.54 1492.28 2310.59 1490.24 2315.63 1488.21 2320.27 1486.75 2323.77 1487.91 2327.27 1489.08 2330.2 1492.47 2331.58 1497.23 2332.97 1501.98 2332.48 1510.62 2332.07 1516.44 2331.67 1522.26 2330.69 1526.73 2329.14 1532.16 2327.6 1537.59 2324.99 1543.9 2322.8 1549.04 2320.6 1554.18 2319.95 1559.62 2315.96 1563.01 2311.97 1566.41 2302.45 1570.1 2298.87 1569.42 2295.29 1568.74 2295.21 1562.34 2294.48 1558.94 2293.74 1555.54 2294.48 1549.04 2294.48 1549.04L2294.48 1535.65 2293.5 1500.14Z" stroke="#3C3D5D" stroke-width="4.58333" stroke-miterlimit="8" fill="#F8DEBE" fill-rule="evenodd"/><path d="M2003.5 1536C2003.5 1446.81 2068.19 1374.5 2148 1374.5 2227.81 1374.5 2292.5 1446.81 2292.5 1536 2292.5 1625.19 2227.81 1697.5 2148 1697.5 2068.19 1697.5 2003.5 1625.19 2003.5 1536Z" stroke="#172C51" stroke-width="4.58333" stroke-miterlimit="8" fill="#F8DEC1" fill-rule="evenodd"/><path d="M2076 1516C2076 1509.92 2080.92 1505 2087 1505 2093.08 1505 2098 1509.92 2098 1516 2098 1522.07 2093.08 1527 2087 1527 2080.92 1527 2076 1522.07 2076 1516Z" fill="#3C3D5D" fill-rule="evenodd"/><path d="M2188 1516C2188 1509.92 2192.92 1505 2199 1505 2205.08 1505 2210 1509.92 2210 1516 2210 1522.07 2205.08 1527 2199 1527 2192.92 1527 2188 1522.07 2188 1516Z" fill="#3C3D5D" fill-rule="evenodd"/><path d="M2176.18 1484.91C2175.9 1479.45 2187.47 1474.4 2202.03 1473.65 2216.59 1472.89 2228.63 1476.7 2228.91 1482.16 2212.34 1479.59 2192.4 1480.63 2176.18 1484.91Z" fill="#3C3D5D" fill-rule="evenodd"/><path d="M2061.02 1474.69C2062.06 1469.32 2073.79 1467.09 2087.2 1469.71 2100.62 1472.32 2110.65 1478.79 2109.6 1484.16 2093.97 1479.43 2077.27 1476.18 2061.02 1474.69Z" fill="#3C3D5D" fill-rule="evenodd"/><path d="M1977.02 1377.22C1978.45 1369.48 1984.26 1362.99 1989.03 1354.88 1993.79 1346.76 1998.85 1334.64 2005.62 1328.53 2012.38 1322.42 2018.67 1321.27 2029.64 1318.22 2040.6 1315.16 2062.33 1312.68 2071.39 1310.2 2080.44 1307.71 2077.87 1307.81 2083.97 1303.32 2090.07 1298.84 2099.13 1287.28 2107.99 1283.27 2116.86 1279.26 2128.87 1278.5 2137.16 1279.26 2145.45 1280.03 2151.55 1284.71 2157.75 1287.86 2163.95 1291.01 2168.81 1295.68 2174.34 1298.17 2179.86 1300.65 2185.68 1302.56 2190.92 1302.75 2196.16 1302.94 2199.88 1298.26 2205.79 1299.31 2211.7 1300.36 2219.71 1307.43 2226.38 1309.05 2233.05 1310.67 2239.82 1309.43 2245.83 1309.05 2251.83 1308.67 2257.27 1305.23 2262.41 1306.76 2267.56 1308.29 2272.14 1311.34 2276.71 1318.22 2281.29 1325.09 2285.58 1339.98 2289.87 1348 2294.15 1356.02 2300.16 1360.7 2302.45 1366.33 2304.74 1371.97 2305.78 1377.5 2303.59 1381.8 2301.4 1386.1 2291.68 1388.67 2289.29 1392.11 2286.91 1395.55 2288.44 1399.37 2289.29 1402.42 2290.15 1405.48 2291.68 1407.96 2294.44 1410.44 2297.21 1412.92 2303.5 1414.55 2305.88 1417.31 2308.26 1420.08 2309.6 1423.42 2308.74 1427.05 2307.88 1430.68 2303.02 1435.07 2300.73 1439.08 2298.44 1443.09 2295.39 1446.91 2295.01 1451.11 2294.63 1455.31 2298.73 1454.17 2298.44 1464.29 2298.16 1474.41 2296.06 1508.68 2293.3 1511.83 2290.53 1514.98 2285.77 1487.49 2281.86 1483.19 2277.95 1478.89 2273.57 1486.72 2269.85 1486.05 2266.13 1485.39 2261.75 1483.38 2259.55 1479.18 2257.36 1474.98 2258.03 1466.58 2256.69 1460.85 2255.36 1455.12 2254.41 1448.63 2251.55 1444.81 2248.69 1440.99 2244.4 1438.32 2239.54 1437.94 2234.67 1437.55 2227.81 1440.32 2222.38 1442.52 2216.94 1444.71 2210.27 1448.53 2206.94 1451.11 2203.6 1453.69 2205.22 1457.79 2202.36 1457.99 2199.5 1458.18 2193.3 1455.88 2189.78 1452.26 2186.25 1448.63 2182.91 1441.09 2181.2 1436.22 2179.48 1431.35 2181.39 1426.29 2179.48 1423.04 2177.58 1419.8 2176.05 1416.17 2169.76 1416.74 2163.47 1417.31 2148.6 1423.62 2141.73 1426.48 2134.87 1429.34 2131.25 1430.49 2128.58 1433.93 2125.91 1437.36 2129.34 1440.7 2125.72 1447.1 2122.1 1453.5 2113.42 1466.96 2106.85 1472.31 2100.27 1477.65 2094.84 1478.51 2086.26 1479.18 2077.68 1479.85 2063 1476.6 2055.37 1476.32 2047.75 1476.03 2044.98 1473.07 2040.5 1477.46 2036.02 1481.85 2032.02 1497.7 2028.49 1502.67 2024.97 1507.63 2022.58 1507.06 2019.34 1507.25 2016.1 1507.44 2011.53 1499.71 2009.05 1503.81 2006.57 1507.92 2007.9 1533.98 2004.47 1531.88 2001.04 1529.78 1993.22 1500.95 1988.46 1491.21 1983.69 1481.47 1978.93 1481.18 1975.87 1473.45 1972.82 1465.72 1969.2 1452.35 1970.16 1444.81 1971.11 1437.27 1979.88 1435.45 1981.59 1428.2 1983.31 1420.94 1981.21 1409.77 1980.45 1401.28 1979.69 1392.78 1975.59 1384.95 1977.02 1377.22Z" fill="#3C3D5D" fill-rule="evenodd"/><path d="M1715.5 1794.27C1727.24 1792.26 1738.97 1790.24 1752.24 1788.63 1765.5 1787.01 1781.45 1783.92 1795.1 1784.59 1808.75 1785.27 1824.56 1790.51 1834.13 1792.66 1843.7 1794.81 1848.1 1796.16 1852.5 1797.5" stroke="#172C51" stroke-width="4.58333" stroke-miterlimit="8" fill="none" fill-rule="evenodd"/><path d="M2441.5 1794.27C2453.24 1792.26 2464.97 1790.24 2478.24 1788.63 2491.5 1787.01 2507.45 1783.92 2521.1 1784.59 2534.75 1785.27 2550.56 1790.51 2560.13 1792.66 2569.7 1794.81 2574.1 1796.16 2578.5 1797.5" stroke="#172C51" stroke-width="4.58333" stroke-miterlimit="8" fill="none" fill-rule="evenodd"/><path d="M1739.5 1822.5C1747.86 1813.64 1756.23 1804.78 1765.36 1798.62 1774.48 1792.45 1777.4 1785.9 1794.25 1785.52 1811.11 1785.13 1838.81 1790.72 1866.5 1796.3" stroke="#172C51" stroke-width="4.58333" stroke-miterlimit="8" fill="none" fill-rule="evenodd"/><path d="M2547.5 1826.5C2543.14 1818.32 2538.79 1810.15 2530.07 1803.5 2521.36 1796.86 2508.47 1788.04 2495.21 1786.64 2481.95 1785.23 2450.5 1795.07 2450.5 1795.07L2450.5 1795.07" stroke="#172C51" stroke-width="4.58333" stroke-miterlimit="8" fill="none" fill-rule="evenodd"/><path d="M1963.68 1508.5C1962.19 1515.26 1960.7 1522.02 1962 1528.35 1963.3 1534.68 1967.4 1540.59 1971.5 1546.5" stroke="#EDC699" stroke-width="4.58333" stroke-miterlimit="8" fill="none" fill-rule="evenodd"/><path d="M3.48236 0C1.09771 10.4935-1.28638 20.9875 0.799765 30.8208 2.88591 40.6542 9.44286 49.8269 15.9998 59.0001" stroke="#EDC699" stroke-width="4.58333" stroke-miterlimit="8" fill="none" fill-rule="evenodd" transform="matrix(-1 0 0 1 2323.5 1500.5)"/><rect x="1827" y="1544" width="633" height="460" fill="#419EAD"/><path d="M1827 2004 1827 1885C1827 1819.28 1968.7 1766 2143.5 1766 2318.3 1766 2460 1819.28 2460 1885L2460 2004Z" fill="#32324B" fill-rule="evenodd" fill-opacity="0.431373"/><rect x="1827" y="1964" width="633" height="44" fill="#28253D"/><path d="M2140 1750 2099 1750C2076.36 1750 2058 1732.76 2058 1711.5 2058 1690.24 2076.36 1673 2099 1673L2140 1673Z" fill="#FFFFFF" fill-rule="evenodd"/><path d="M2149 1688C2149 1679.16 2156.16 1672 2165 1672L2178 1672C2186.84 1672 2194 1679.16 2194 1688L2194 1688C2194 1696.84 2186.84 1704 2178 1704L2165 1704C2156.16 1704 2149 1696.84 2149 1688Z" fill="#FFFFFF" fill-rule="evenodd"/><path d="M2151 1732C2151 1721.51 2159.51 1713 2170 1713L2189 1713C2199.49 1713 2208 1721.51 2208 1732L2208 1732C2208 1742.49 2199.49 1751 2189 1751L2170 1751C2159.51 1751 2151 1742.49 2151 1732Z" fill="#FFFFFF" fill-rule="evenodd"/><rect x="2133" y="331" width="19" height="232" fill="#97979B"/><rect x="2136" y="331" width="3" height="220" fill="#C1C1C3"/><path d="M2125 555.11C2125 552.288 2127.29 550 2130.11 550L2154.89 550C2157.71 550 2160 552.288 2160 555.11L2160 666.89C2160 669.712 2157.71 672 2154.89 672L2130.11 672C2127.29 672 2125 669.712 2125 666.89Z" fill="#53616E" fill-rule="evenodd"/><rect x="2133" y="550" width="6.99976" height="38.9998" fill="#86909D"/><path d="M2064 1013C2064 964.399 2098.92 925 2142 925 2185.08 925 2220 964.399 2220 1013 2220 1061.6 2185.08 1101 2142 1101 2098.92 1101 2064 1061.6 2064 1013Z" fill="#FEF5B4" fill-rule="evenodd"/><path d="M2056.47 813.41 2229.68 813 2385 1007 1895 1007 2056.47 813.41Z" fill="#347281" fill-rule="evenodd"/><path d="M1881 1007 2404 1007C2410.08 1007 2415 1011.92 2415 1018L2415 1018C2415 1024.08 2410.07 1029 2404 1029L1881 1029C1874.92 1029 1870 1024.07 1870 1018L1870 1018C1870 1011.92 1874.92 1007 1881 1007Z" fill="#589EAD" fill-rule="evenodd"/><path d="M2089.71 621.576C2095.94 598.49 2105.21 582 2122.27 582L2162.97 582C2180.03 582 2190.98 600.333 2194.81 621.576 2197.53 636.268 2200.48 650.96 2202 665.652 2202 687.51 2180.03 704 2162.97 704L2122.27 704C2105.21 704 2083 686.588 2083 664.731 2083 650.448 2088.03 636.166 2089.71 621.576Z" fill="#347281" fill-rule="evenodd"/><path d="M1918 979.734C1922.85 980.452 1927.71 981.17 1936.45 980.965 1945.18 980.76 1955.7 980.349 1970.42 978.504 1985.15 976.659 2003.92 975.223 2024.79 969.892 2045.66 964.561 2070.74 956.974 2095.66 946.517 2120.58 936.059 2153.26 921.706 2174.3 907.148 2195.33 892.59 2211.75 872.649 2221.87 859.167 2231.98 845.685 2235.34 834.715 2234.97 826.257 2234.61 817.799 2231.21 815.646 2219.68 808.418 2208.15 801.19 2181.21 801.293 2165.8 782.89 2150.39 764.487 2141.82 697.796 2127.21 698.001 2112.61 698.206 2088.46 766.691 2078.19 784.12 2067.91 801.549 2078.51 788.426 2065.57 802.574 2052.62 816.723 1989.84 894.845 1989.84 894.845L1918 979.734Z" fill="#418FA1" fill-rule="evenodd"/><path d="M2089.76 619.825 2194.94 619 2230 815 2056 815 2089.76 619.825Z" fill="#347281" fill-rule="evenodd"/><path d="M2104.69 628.973C2105.64 623.045 2111.22 619.016 2117.15 619.973L2117.15 619.973C2123.08 620.931 2127.11 626.513 2126.15 632.44L2108.47 741.907C2107.51 747.835 2101.93 751.864 2096 750.906L2096 750.906C2090.08 749.949 2086.05 744.367 2087 738.439Z" fill="#418FA1" fill-rule="evenodd"/></g></svg>