<svg width="950" height="632" xmlns="http://www.w3.org/2000/svg" xmlns:xlink="http://www.w3.org/1999/xlink" xml:space="preserve" overflow="hidden"><defs><clipPath id="clip0"><rect x="1145" y="1562" width="950" height="632"/></clipPath></defs><g clip-path="url(#clip0)" transform="translate(-1145 -1562)"><path d="M1582.16 2194 1482.96 2192.17C1296.31 2192.17 1145 2051.77 1145 1878.58 1145 1705.4 1296.31 1565 1482.96 1565L1584 1565C1583.39 1774.67 1582.78 1984.33 1582.16 2194Z" fill="#F04768" fill-rule="evenodd"/><path d="M1621 1692.5C1621 1620.43 1679.43 1562 1751.5 1562L1861.5 1562C1933.57 1562 1992 1620.43 1992 1692.5L1992 1692.5C1992 1764.57 1933.57 1823 1861.5 1823L1751.5 1823C1679.43 1823 1621 1764.57 1621 1692.5Z" fill="#F3AC00" fill-rule="evenodd"/><path d="M1621 2033.5C1621 1947.07 1691.07 1877 1777.5 1877L1938.5 1877C2024.93 1877 2095 1947.07 2095 2033.5L2095 2033.5C2095 2119.93 2024.93 2190 1938.5 2190L1777.5 2190C1691.07 2190 1621 2119.93 1621 2033.5Z" fill="#419EAD" fill-rule="evenodd"/></g></svg>