<svg width="2007" height="1836" xmlns="http://www.w3.org/2000/svg" xmlns:xlink="http://www.w3.org/1999/xlink" xml:space="preserve" overflow="hidden"><g transform="translate(-1566 -299)"><path d="M2250.5 1470.5C2250.5 1105.99 2545.99 810.5 2910.5 810.5 3275.01 810.5 3570.5 1105.99 3570.5 1470.5 3570.5 1835.01 3275.01 2130.5 2910.5 2130.5 2545.99 2130.5 2250.5 1835.01 2250.5 1470.5Z" stroke="#292C3B" stroke-width="4.58333" stroke-miterlimit="8" fill="#FFFFFF" fill-rule="evenodd"/><path d="M3262.98 1890.73C3275.83 1884.7 3286.67 1878.95 3298.08 1883.83 3309.49 1888.72 3324.17 1908.43 3331.45 1920.01 3338.74 1931.59 3342.96 1944.23 3341.81 1953.32 3340.66 1962.41 3334.81 1967.48 3324.55 1974.57 3314.29 1981.65 3294.15 1990.45 3280.24 1995.81 3266.34 2001.17 3254.54 2004.43 3241.11 2006.72 3227.69 2009.02 3210.23 2010.84 3199.68 2009.6 3189.13 2008.35 3181.94 2005 3177.82 1999.26 3173.69 1993.52 3173.21 1983.66 3174.94 1975.14 3176.67 1966.62 3185.87 1957.34 3188.17 1948.15 3190.48 1938.96 3184.34 1922.98 3188.75 1920.01 3193.16 1917.05 3209.27 1930.35 3214.64 1930.35 3220.01 1930.35 3212.73 1926.71 3220.97 1920.01 3229.22 1913.31 3250.13 1896.76 3262.98 1890.73Z" fill="#F8DEC1" fill-rule="evenodd"/><path d="M2693.76 1923.49 2613.01 1859.48C2606.01 1853.94 2604.84 1843.78 2610.38 1836.79L2869.94 1509.3 2976.01 1593.37 2716.46 1920.86C2710.91 1927.85 2700.75 1929.03 2693.76 1923.49Z" fill="#F04768" fill-rule="evenodd"/><path d="M2903.48 1449.64C2910.17 1450.71 2891.65 1459.17 2888.59 1465.83 2885.54 1472.48 2883.24 1480.94 2885.15 1489.57 2887.06 1498.21 2890.69 1510.62 2900.05 1517.63 2909.4 1524.65 2922.01 1531.13 2941.29 1531.67 2960.58 1532.2 2989.41 1530.23 3015.76 1520.87 3042.11 1511.52 3066.93 1472.66 3099.4 1475.54 3131.86 1478.42 3191.05 1495.87 3210.53 1538.14 3230 1580.42 3217.97 1686.73 3216.25 1729.19 3214.54 1771.64 3203.27 1777.94 3200.22 1792.87 3197.16 1807.8 3199.26 1802.04 3197.92 1818.77 3196.59 1835.5 3195.06 1866.62 3192.2 1893.25 3189.33 1919.87 3185.99 1947.3 3180.74 1978.51 3175.49 2009.72 3172.27 2073.16 3160.69 2080.51 3149.11 2087.86 3131.41 2093.18 3106.65 2100.51 3081.89 2107.85 3012.13 2124.51 3012.13 2124.51 2923.92 2137.28 2979.1 2130.54 2890.88 2131.98 2834.93 2130.54 2789.58 2114.81 2763.52 2107.31 2737.46 2099.81 2738.28 2102.16 2734.5 2086.99 2730.71 2071.82 2738.79 2036.89 2740.8 2016.29 2742.8 1995.69 2745 1981.93 2746.53 1963.4 2748.05 1944.87 2748.63 1923.29 2749.96 1905.12 2751.3 1886.95 2753.97 1904.94 2754.55 1854.39 2755.12 1803.84 2753.59 1656.96 2753.4 1601.82 2753.21 1546.69 2752.06 1541.02 2753.4 1523.57 2754.74 1506.12 2754.55 1504.77 2761.42 1497.13 2768.29 1489.48 2780.51 1483.27 2794.64 1477.7 2808.77 1472.12 2831.12 1464.57 2848.49 1459.35 2865.87 1454.13 2896.8 1448.56 2903.48 1449.64Z" stroke="#172C51" stroke-width="4.58333" stroke-miterlimit="8" fill="#F04768" fill-rule="evenodd"/><path d="M3007.92 2007.91 3007.92 2007.91C2994.44 2002.66 2987.76 1987.48 2993.01 1973.99L3009 1932.93 3057.83 1951.94 3041.84 1993C3036.59 2006.49 3021.4 2013.16 3007.92 2007.91Z" stroke="#172C51" stroke-width="4.58333" stroke-miterlimit="8" fill="#011567" fill-rule="evenodd"/><path d="M3035.17 1990.3 2992.98 1973.88C2970.69 1965.2 2959.66 1940.1 2968.34 1917.82L2990.92 1859.84 3113.8 1907.69 3091.22 1965.67C3082.55 1987.95 3057.45 1998.98 3035.17 1990.3Z" fill="#589EAD" fill-rule="evenodd"/><path d="M2980.5 1886.5C2997.1 1897.87 3013.7 1909.25 3034.2 1917.08 3054.7 1924.91 3079.1 1929.21 3103.5 1933.5" stroke="#FFFFFF" stroke-width="4.58333" stroke-miterlimit="8" fill="none" fill-rule="evenodd"/><path d="M2972.5 1909.5C2988.97 1920.87 3005.43 1932.25 3025.77 1940.08 3046.1 1947.91 3070.3 1952.21 3094.5 1956.5" stroke="#FFFFFF" stroke-width="4.58333" stroke-miterlimit="8" fill="none" fill-rule="evenodd"/><path d="M2594.45 1939.57 2594.45 1939.57C2578.47 1932.15 2571.53 1913.17 2578.95 1897.18L2593.25 1866.39 2651.14 1893.28 2636.85 1924.07C2629.42 1940.05 2610.44 1947 2594.45 1939.57Z" fill="#F04768" fill-rule="evenodd"/><path d="M2441.93 1490.46 2538.81 1458.8 2604.62 1660.17 2507.73 1691.83Z" fill="#F8DEC1" fill-rule="evenodd"/><path d="M2623.36 1952.92 2619.83 1951.28C2586.91 1935.99 2572.61 1896.9 2587.9 1863.98L2743.03 1529.95 2865.79 1586.96 2710.66 1920.99C2695.37 1953.92 2656.28 1968.21 2623.36 1952.92Z" fill="#F04768" fill-rule="evenodd"/><path d="M2486.14 1637.74 2593.59 1604.93 2678.74 1883.74 2571.28 1916.56Z" fill="#F04768" fill-rule="evenodd"/><path d="M2877.5 1495C2877.5 1462.14 2922.94 1435.5 2979 1435.5 3035.06 1435.5 3080.5 1462.14 3080.5 1495 3080.5 1527.86 3035.06 1554.5 2979 1554.5 2922.94 1554.5 2877.5 1527.86 2877.5 1495Z" stroke="#172C51" stroke-width="4.58333" stroke-miterlimit="8" fill="#F8DEC1" fill-rule="evenodd"/><path d="M3060.76 1252.96C3063.24 1267.85 3017.85 1293.69 3017.18 1329.14 3014.89 1359.4 3045.76 1405.57 3050.44 1425.94 3063.15 1445.73 3095.35 1454.39 3077.96 1464.51 3060.57 1474.63 2963.66 1489.45 2946.08 1486.65 2928.5 1483.85 2938.15 1430.23 2928.3 1421.93 2918.46 1413.62 2916.07 1397.01 2905.37 1391 2894.66 1384.99 2876.79 1387.18 2864.08 1385.84 2851.37 1384.51 2839.33 1386.45 2829.1 1382.98 2818.88 1379.51 2809.32 1371.43 2802.73 1365.03 2796.13 1358.64 2793.07 1353.64 2789.54 1344.6 2786 1335.57 2782.47 1322.55 2781.51 1310.81 2780.55 1299.07 2780.74 1289.33 2783.8 1274.15 2786.86 1258.97 2794.32 1235.39 2799.86 1219.74 2805.4 1204.08 2807.5 1198.54 2817.06 1180.21 2826.62 1161.88 2846.11 1126.37 2857.2 1109.76 2868.29 1093.15 2876.22 1087.71 2883.58 1080.55 2890.94 1073.39 3043.51 1138.83 3048.72 1135.54" fill="#F8DEC1" fill-rule="evenodd"/><path d="M3368.89 1805.54C3385.04 1807.63 3246.34 1882.92 3271.47 1891.77 3296.59 1900.62 3304.13 1917.28 3313.3 1930.61 3322.47 1943.93 3328.68 1953.87 3326.48 1971.73 3324.29 1989.6 3435.95 1896.73 3465.18 1872.94 3494.41 1849.14 3493.93 1841.71 3501.86 1828.95 3509.78 1816.19 3510.93 1807.92 3512.74 1796.4 3514.56 1784.88 3514.27 1770.79 3512.74 1759.85 3511.22 1748.9 3515.32 1746.71 3503.57 1730.72 3491.83 1714.73 3474.92 1697.88 3442.25 1663.91 3409.58 1629.93 3335.75 1547.78 3300.69 1525.13 3258.76 1514.47 3204.51 1582.33 3181.49 1598.23 3165.06 1618.5 3211.58 1628.21 3219.31 1641.06 3227.05 1653.91 3217.88 1673.9 3221.61 1681.61 3225.33 1689.32 3357.81 1794.3 3363.74 1798.68" fill="#F04768" fill-rule="evenodd"/><path d="M2527.66 1143.32C2525.8 1126.9 2540.41 1115.28 2548.43 1105.13 2556.44 1094.97 2566.95 1088.8 2575.76 1082.4 2584.57 1076.01 2592.68 1072.03 2601.27 1066.75 2609.86 1061.46 2616.04 1056.94 2627.33 1050.7 2638.62 1044.47 2658.59 1034.92 2669.02 1029.32 2679.44 1023.72 2684.18 1019.52 2689.86 1017.1 2695.54 1014.68 2699.72 1014.04 2703.07 1014.81 2706.42 1015.57 2708.56 1017.83 2709.96 1021.68 2711.36 1025.53 2711.63 1029.64 2711.45 1037.91 2711.26 1046.19 2709.46 1060.16 2708.84 1071.33 2708.22 1082.5 2708.63 1091.22 2707.73 1104.94 2706.83 1118.65 2705.24 1139.37 2703.45 1153.63 2701.65 1167.89 2699.91 1178.52 2696.93 1190.49 2693.95 1202.45 2689.61 1220.21 2685.58 1225.43 2681.55 1230.65 2678.48 1224.7 2672.74 1221.8 2667 1218.91 2666.29 1216.71 2651.15 1208.05 2636.01 1199.4 2580.21 1214.45 2559.63 1203.66 2539.05 1192.87 2529.53 1159.74 2527.66 1143.32Z" stroke="#172C51" stroke-width="4.58333" stroke-miterlimit="8" fill="#FFFFFF" fill-rule="evenodd"/><path d="M2314.26 1765.34 2208.86 1699.49C2193.65 1689.98 2189.02 1669.93 2198.53 1654.72L2247.44 1576.44 2407.94 1676.73 2359.03 1755.01C2349.52 1770.23 2329.48 1774.85 2314.26 1765.34Z" stroke="#011466" stroke-width="4.58333" stroke-miterlimit="8" fill="#9F458B" fill-rule="evenodd"/><path d="M2403.74 1676.13 2247.89 1578.74 2528.11 1130.3 2683.96 1227.69Z" stroke="#172C51" stroke-width="4.58333" stroke-miterlimit="8" fill="#FFFFFF" fill-rule="evenodd"/><path d="M2405.57 1677.78 2247.89 1579.25 2265.15 1551.63 2422.83 1650.16Z" fill="#001466" fill-rule="evenodd"/><rect x="0" y="0" width="6.6" height="330" fill="#172C51" transform="matrix(0.848048 0.529919 0.529919 -0.848048 2331.29 1611.21)"/><rect x="0" y="0" width="6.6" height="247.5" fill="#001466" transform="matrix(0.848048 0.529919 0.529919 -0.848048 2365.21 1654.83)"/><rect x="0" y="0" width="6.6" height="247.5" fill="#001466" transform="matrix(0.848048 0.529919 0.529919 -0.848048 2284.77 1589.4)"/><path d="M2684.97 1060.62C2678.25 1056.96 2672.98 1052.9 2667.82 1049.28 2662.66 1045.66 2653.86 1042.3 2654 1038.9 2654.15 1035.51 2662.81 1032.63 2668.7 1028.91 2674.59 1025.2 2683.72 1019.05 2689.35 1016.61 2694.97 1014.18 2699.12 1013.54 2702.44 1014.31 2705.76 1015.08 2707.88 1017.35 2709.26 1021.22 2710.65 1025.1 2710.92 1029.23 2710.74 1037.56 2710.55 1045.88 2712.45 1067.34 2708.16 1071.18 2703.86 1075.03 2691.69 1064.27 2684.97 1060.62Z" fill="#172C51" fill-rule="evenodd"/><path d="M2469 1575 2563.15 1898.96" stroke="#172C51" stroke-width="8.02083" stroke-linecap="round" stroke-miterlimit="8" fill="none" fill-rule="evenodd"/><path d="M2558 1516 2653.36 1787.18" stroke="#172C51" stroke-width="8.02083" stroke-linecap="round" stroke-miterlimit="8" fill="none" fill-rule="evenodd"/><path d="M0 0 19.6701 212.345" stroke="#172C51" stroke-width="10.3125" stroke-linecap="round" stroke-miterlimit="8" fill="none" fill-rule="evenodd" transform="matrix(-1 0 0 1 2753.67 1874)"/><path d="M2938.5 1357.28C2930.12 1365.64 2926.32 1372.46 2918.51 1376.95 2910.7 1381.43 2900.71 1382.61 2891.67 1384.2 2882.62 1385.79 2874.63 1386.59 2864.25 1386.49 2853.88 1386.4 2839.6 1387.1 2829.41 1383.63 2819.23 1380.16 2809.71 1372.08 2803.14 1365.68 2796.57 1359.29 2793.53 1354.29 2790 1345.26 2786.48 1336.22 2782.96 1323.21 2782.01 1311.47 2781.06 1299.73 2781.25 1289.99 2784.29 1274.82 2787.34 1259.64 2794.76 1236.06 2800.28 1220.41 2805.81 1204.76 2807.9 1199.22 2817.42 1180.89 2826.94 1162.57 2846.36 1127.06 2857.4 1110.45 2868.44 1093.84 2876.34 1088.4 2883.67 1081.24 2891 1074.09 2896.19 1070.79 2901.38 1067.5" stroke="#172C51" stroke-width="6.875" stroke-linecap="round" stroke-miterlimit="8" fill="none" fill-rule="evenodd"/><path d="M2825 1218.5C2825 1213.81 2828.58 1210 2833 1210 2837.42 1210 2841 1213.81 2841 1218.5 2841 1223.19 2837.42 1227 2833 1227 2828.58 1227 2825 1223.19 2825 1218.5Z" fill="#3C3D5D" fill-rule="evenodd"/><path d="M2893 1232C2893 1227.58 2897.03 1224 2902 1224 2906.97 1224 2911 1227.58 2911 1232 2911 1236.42 2906.97 1240 2902 1240 2897.03 1240 2893 1236.42 2893 1232Z" fill="#3C3D5D" fill-rule="evenodd"/><path d="M0 0 20.6568 46.4324" stroke="#3C3D5D" stroke-width="5.72917" stroke-linecap="round" stroke-miterlimit="8" fill="none" fill-rule="evenodd" transform="matrix(-1 0 0 1 2859.66 1215)"/><path d="M2839 1264 2859.66 1264" stroke="#3C3D5D" stroke-width="5.72917" stroke-linecap="round" stroke-miterlimit="8" fill="none" fill-rule="evenodd"/><path d="M2823 1301C2829.02 1305.23 2835.05 1309.45 2841.22 1309.95 2847.38 1310.45 2853.69 1307.21 2860 1303.98" stroke="#172C51" stroke-width="5.72917" stroke-linecap="round" stroke-miterlimit="8" fill="none" fill-rule="evenodd"/><path d="M3.64223 168.344C3.78809 156.496 1.31389 153.43 8.03695 144.086 14.76 134.742 10.9145 118.575 12.0556 108.658 13.1968 98.7405 11.4653 92.9446 14.8839 84.582 18.3024 76.2194 27.5115 66.6023 32.5666 58.4815 37.6217 50.3607 39.3569 41.6286 45.2146 35.8561 51.0723 30.0836 59.0555 29.0912 67.7142 23.8456 76.3728 18.6 87.4002 8.31532 97.1657 4.38196 106.931 0.448589 117.147 0.683891 126.309 0.244324 135.47-0.195243 144.705-0.224475 152.135 1.74419 159.565 3.71286 164.002 10.7492 170.891 12.0567 177.781 13.3642 186.717 8.51598 193.471 9.58891 200.225 10.6618 205.369 16.2683 211.415 18.4939 217.46 20.7196 223.824 21.3302 229.746 22.9423 235.669 24.5544 242.055 25.4501 246.948 28.1669 251.842 30.8837 254.275 36.296 259.108 39.2434 263.942 42.1908 270.971 40.8213 275.95 45.8525 280.929 50.8837 284.204 63.0786 288.982 69.4306 293.76 75.7827 301.167 79.9265 304.619 83.9652 308.07 88.004 310.062 89.8521 309.693 93.6635 309.323 97.4749 303.868 103.057 302.401 106.834 300.934 110.612 299.206 114.188 300.89 116.328 302.574 118.467 309.38 117.187 312.506 119.67 315.632 122.152 317.917 127.674 319.646 131.223 321.375 134.772 323.85 137.335 322.88 140.963 321.91 144.592 316.412 148.984 313.825 152.994 311.238 157.004 307.789 160.824 307.358 165.026 306.927 169.227 311.881 173.902 311.238 178.203 310.595 182.503 306.627 187.675 303.501 190.826 300.375 193.977 296.583 195.585 292.482 197.109 288.382 198.633 283.248 200.177 278.9 199.973 274.553 199.77 268.876 200.091 266.397 195.889 263.918 191.688 265.391 180.959 264.025 174.765 262.659 168.571 261.464 166.902 258.204 158.723 254.944 150.545 250.517 134.408 244.464 125.695 238.412 116.982 232.22 103.94 221.89 106.447 211.56 108.953 193.12 131.743 182.482 140.734 171.844 149.724 165.13 156.099 158.064 160.39 150.997 164.681 146.487 163.111 140.081 166.483 133.674 169.854 127.578 176.446 119.623 180.621 111.667 184.796 98.2649 188.186 92.3465 191.533 86.4281 194.879 88.0463 203.858 84.1116 200.702 80.1768 197.545 77.3665 177.88 68.738 172.595 60.1095 167.309 40.9271 164.115 32.3413 168.989 23.7556 173.862 18.5921 190.994 17.2232 201.837 15.8543 212.679 25.8057 231.818 24.1288 234.042 22.4519 236.265 8.65458 233.483 7.16143 215.178-6.44928 201.198 3.49638 180.193 3.64223 168.344Z" fill="#3C3D5D" fill-rule="evenodd" transform="matrix(-0.879087 -0.476661 -0.476661 0.879087 3145.7 1133.21)"/><path d="M2974.5 1272.02C2982.59 1262.09 2990.3 1252.73 2997.05 1248.2 3003.8 1243.66 3009.29 1244.42 3014.97 1244.79 3020.66 1245.17 3026.73 1247.63 3031.16 1250.47 3035.6 1253.3 3038.78 1258.5 3041.57 1261.81 3044.37 1265.12 3046.68 1266.63 3047.93 1270.32 3049.18 1274 3050.05 1278.35 3049.09 1283.93 3048.12 1289.5 3045.04 1298.86 3042.15 1303.78 3039.26 1308.69 3035.69 1310.68 3031.74 1313.42 3027.79 1316.16 3025.09 1319.37 3018.44 1320.22 3011.79 1321.08 3001.82 1319.8 2991.85 1318.52" stroke="#172C51" stroke-width="4.58333" stroke-miterlimit="8" fill="#F8DEC1" fill-rule="evenodd"/><path d="M3001.5 1291.5C3012.51 1289.5 3010.09 1288.05 3015.5 1285.5 3015.68 1285.5 3001.5 1291.5 3001.5 1291.5Z" stroke="#172C51" stroke-width="4.58333" stroke-miterlimit="8" fill="#4472C4" fill-rule="evenodd"/><path d="M3016.5 1320.5C3016.69 1325.34 3016.88 1330.18 3019.54 1340.37 3022.2 1350.55 3026.38 1366.73 3032.45 1381.63 3038.53 1396.53 3045.49 1415.12 3056 1429.77 3066.51 1444.41 3081 1456.96 3095.5 1469.5" stroke="#172C51" stroke-width="4.58333" stroke-miterlimit="8" fill="none" fill-rule="evenodd"/><path d="M2888.5 1386.5C2894.44 1389.09 2900.37 1391.68 2905.53 1395.6 2910.69 1399.52 2915.08 1403.18 2919.47 1410.01 2923.85 1416.83 2929.02 1425.3 2931.85 1436.55 2934.69 1447.8 2935.6 1462.65 2936.5 1477.5" stroke="#172C51" stroke-width="4.58333" stroke-miterlimit="8" fill="none" fill-rule="evenodd"/><path d="M2892.11 1383.85C2890.59 1387.12 2905.08 1396.46 2910.42 1398.29 2915.76 1400.12 2920.25 1398.2 2924.16 1394.83 2928.07 1391.46 2931.5 1382.98 2933.89 1378.07 2936.27 1373.16 2937.7 1368.93 2938.46 1365.36 2939.23 1361.8 2939.13 1357.76 2938.46 1356.7 2937.8 1355.64 2937.6 1355.35 2934.46 1359.01 2931.31 1362.67 2926.26 1374.03 2919.58 1378.65 2912.9 1383.27 2893.64 1380.58 2892.11 1383.85Z" fill="#172C51" fill-rule="evenodd" fill-opacity="0.478431"/><path d="M0 0 40.6769 235.571" stroke="#172C51" stroke-width="8.02083" stroke-linecap="round" stroke-miterlimit="8" fill="none" fill-rule="evenodd" transform="matrix(-1 0 0 1 3200.68 1844)"/><path d="M2750.37 1667.72C2747.43 1653.45 2739.48 1683.56 2735.26 1702.09 2731.04 1720.62 2725.75 1753.29 2725.07 1778.89 2724.39 1804.49 2728.92 1837.04 2731.18 1855.7 2733.45 1874.35 2735.26 1888.61 2738.66 1890.8 2742.06 1893 2749.3 1876.18 2751.57 1868.86 2753.83 1861.55 2752.02 1860.45 2752.25 1846.92 2752.47 1833.39 2753.24 1817.54 2752.93 1787.67 2752.61 1757.8 2753.32 1681.98 2750.37 1667.72Z" fill="#ED2349" fill-rule="evenodd"/><path d="M2754.5 1633.5 2754.5 1879.96" stroke="#172C51" stroke-width="9.16667" stroke-linecap="round" stroke-miterlimit="8" fill="none" fill-rule="evenodd"/><path d="M2563 1898.81C2568.87 1908.93 2574.75 1919.05 2579.48 1925.6 2584.22 1932.16 2587.06 1934.63 2591.42 1938.15 2595.78 1941.66 2598.91 1943.85 2605.63 1946.7 2612.36 1949.55 2622.88 1953.63 2631.78 1955.25 2640.69 1956.86 2649.97 1957.62 2659.07 1956.39 2668.16 1955.15 2678.3 1952.11 2686.35 1947.84 2694.41 1943.56 2700 1937.86 2707.39 1930.74 2714.78 1923.61 2722.92 1913.54 2730.69 1905.08 2738.46 1896.63 2746.23 1888.31 2754 1880" stroke="#172C51" stroke-width="8.02083" stroke-linecap="round" stroke-miterlimit="8" fill="none" fill-rule="evenodd"/><path d="M3182.56 2008.66C3198.7 2010.76 3214.85 2012.86 3232.42 2010.38 3250 2007.89 3265.76 2003.12 3288.01 1993.76 3310.27 1984.41 3335.96 1974.48 3365.96 1954.24 3395.95 1934 3445.24 1892.47 3467.97 1872.33 3490.7 1852.18 3494.81 1845.31 3502.36 1833.37 3509.9 1821.44 3511.43 1812.27 3513.24 1800.72 3515.06 1789.17 3514.77 1775.04 3513.24 1764.06 3511.72 1753.08 3515.82 1750.89 3504.07 1734.85 3492.33 1718.81 3475.42 1701.91 3442.75 1667.83 3410.08 1633.75 3336.25 1551.36 3301.19 1528.63 3259.26 1517.94 3205.01 1586.01 3181.99 1601.96 3165.56 1622.29 3212.08 1632.03 3219.81 1644.92 3227.55 1657.8 3218.38 1677.85 3222.11 1685.59 3225.83 1693.32 3362.9 1798.62 3368.82 1803.01" stroke="#172C51" stroke-width="4.58333" stroke-linecap="square" stroke-miterlimit="8" fill="none" fill-rule="evenodd"/><path d="M0 0 163.192 126.941" stroke="#172C51" stroke-width="8.02083" stroke-linecap="round" stroke-miterlimit="8" fill="none" fill-rule="evenodd" transform="matrix(1 0 0 -1 3221 1922.94)"/><path d="M3267 1891C3273.33 1893.89 3279.67 1896.79 3285.29 1900.84 3290.9 1904.89 3295.86 1909.9 3300.71 1915.3 3305.57 1920.7 3310.52 1926.58 3314.43 1933.24 3318.33 1939.89 3322.05 1948.76 3324.14 1955.22 3326.24 1961.68 3326.62 1966.84 3327 1972" stroke="#172C51" stroke-width="8.02083" stroke-linecap="round" stroke-miterlimit="8" fill="none" fill-rule="evenodd"/><path d="M2869 1673.5C2869 1541.78 2980.48 1435 3118 1435 3255.52 1435 3367 1541.78 3367 1673.5 3367 1805.22 3255.52 1912 3118 1912 2980.48 1912 2869 1805.22 2869 1673.5Z" fill="#FDB870" fill-rule="evenodd"/><path d="M3230.99 1975.42C3230.61 1989.64 3225.64 2002.62 3216.65 2007.71 3207.67 2012.81 3189.32 2008.1 3177.09 2005.98 3164.86 2003.87 3155.59 2000.22 3143.26 1995.03 3130.93 1989.83 3114.78 1981.57 3103.12 1974.84 3091.46 1968.11 3079.61 1959.65 3073.3 1954.65 3067 1949.65 3067.28 1947.92 3065.28 1944.85 3063.27 1941.77 3061.26 1938.89 3061.26 1936.2 3061.26 1933.5 3064.8 1931.01 3065.28 1928.7 3065.75 1926.39 3066.23 1925.53 3064.13 1922.35 3062.03 1919.18 3054.48 1914.09 3052.66 1909.67 3050.84 1905.24 3051.9 1898.42 3053.23 1895.82 3054.57 1893.23 3060.21 1895.34 3060.69 1894.09 3061.17 1892.84 3057.73 1890.63 3056.1 1888.33 3054.48 1886.02 3051.99 1883.62 3050.94 1880.25 3049.89 1876.89 3047.88 1870.25 3049.79 1868.14 3051.71 1866.02 3058.97 1866.79 3062.41 1867.56 3065.85 1868.33 3070.25 1874.68 3070.44 1872.75 3070.63 1870.83 3064.7 1861.03 3063.56 1856.03 3062.41 1851.03 3061.55 1844.59 3063.56 1842.76 3065.56 1840.94 3071.49 1842.67 3075.6 1845.07 3079.71 1847.47 3081.62 1851.03 3088.21 1857.18 3094.81 1863.33 3105.89 1874.68 3115.16 1881.98 3124.43 1889.29 3136.09 1896.5 3143.83 1901.01 3151.57 1905.53 3156.92 1907.74 3161.61 1909.09 3166.29 1910.43 3173.08 1913.8 3171.93 1909.09 3170.78 1904.38 3157.98 1888.33 3154.73 1880.83 3151.48 1873.33 3152.15 1868.91 3152.43 1864.1 3152.72 1859.3 3152.53 1853.14 3156.45 1851.99 3160.36 1850.84 3169.35 1853.53 3175.94 1857.18 3182.54 1860.83 3189.99 1866.6 3196.01 1873.91 3202.03 1881.21 3208.44 1892.75 3212.07 1901.01 3215.7 1909.28 3215.79 1909.95 3218.95 1922.35 3222.1 1934.75 3231.37 1961.19 3230.99 1975.42Z" fill="#F8DEC1" fill-rule="evenodd"/><path d="M3210.5 2012.5C3200.36 2010.11 3182.58 2008.68 3169.25 2005.05 3155.91 2001.42 3142.91 1996.83 3130.49 1990.71 3118.08 1984.6 3104.86 1975.33 3094.77 1968.35 3084.67 1961.38 3074.99 1953.73 3069.94 1948.86 3064.89 1943.99 3065.5 1942.08 3064.49 1939.11 3063.48 1936.15 3063.18 1933.19 3063.88 1931.09 3064.59 1928.98 3066.66 1927.74 3068.73 1926.5" stroke="#172C51" stroke-width="4.58333" stroke-miterlimit="8" fill="none" fill-rule="evenodd"/><path d="M3112.5 1954.5 3082.76 1937.4C3075.52 1933.22 3073.33 1933.41 3069.04 1929.42 3064.75 1925.43 3059.51 1917.07 3057.03 1913.46 3054.55 1909.85 3054.65 1910.23 3054.17 1907.76 3053.7 1905.29 3052.93 1900.45 3054.17 1898.64 3055.41 1896.84 3058.37 1895.89 3061.61 1896.93" stroke="#172C51" stroke-width="4.58333" stroke-miterlimit="8" fill="none" fill-rule="evenodd"/><path d="M3108.5 1927.5 3068.81 1900.67C3060.58 1894.87 3061.81 1895.82 3059.17 1892.68 3056.52 1889.54 3054.35 1885.16 3052.93 1881.84 3051.51 1878.51 3050 1875.08 3050.66 1872.7 3051.32 1870.32 3053.12 1866.99 3056.9 1867.56 3060.68 1868.14 3065.78 1870.7 3073.34 1876.13" stroke="#172C51" stroke-width="4.58333" stroke-miterlimit="8" fill="none" fill-rule="evenodd"/><path d="M3127.94 1913.86C3119.74 1909.46 3111.53 1905.06 3103.9 1900.66 3096.27 1896.26 3088.17 1892.63 3082.16 1887.46 3076.15 1882.3 3071.28 1875.32 3067.85 1869.68 3064.42 1864.03 3061.94 1857.91 3061.56 1853.61 3061.17 1849.31 3062.8 1845 3065.56 1843.85 3068.33 1842.71 3074.24 1844.52 3078.15 1846.72 3082.06 1848.92 3084.54 1852.84 3089.02 1857.05 3093.51 1861.26 3099.9 1867.67 3105.05 1871.97 3110.2 1876.28 3112.68 1878.09 3119.93 1882.87 3127.17 1887.66 3139.96 1896.26 3148.54 1900.66 3157.12 1905.06 3169.33 1911.37 3171.43 1909.27 3173.53 1907.17 3163.99 1894.16 3161.13 1888.04 3158.27 1881.92 3155.22 1878.38 3154.26 1872.55 3153.31 1866.71 3151.4 1855.43 3155.41 1853.04 3159.41 1850.64 3169.81 1853.13 3178.3 1858.2 3186.79 1863.27 3199.47 1871.4 3206.34 1883.45 3213.21 1895.5 3216.83 1922.75 3219.5 1930.5" stroke="#172C51" stroke-width="4.58333" stroke-miterlimit="8" fill="none" fill-rule="evenodd"/><path d="M2887.5 1190.47C2896.31 1189.63 2905.13 1188.79 2911.12 1190.47 2917.12 1192.14 2920.31 1196.32 2923.5 1200.5" stroke="#172C51" stroke-width="6.875" stroke-linecap="round" stroke-miterlimit="8" fill="none" fill-rule="evenodd"/><path d="M2829.5 1173.47C2838.49 1172.63 2841.75 1171.79 2847.87 1173.47 2853.99 1175.14 2857.25 1179.32 2860.5 1183.5" stroke="#172C51" stroke-width="6.875" stroke-linecap="round" stroke-miterlimit="8" fill="none" fill-rule="evenodd"/><path d="M0 0 98.8134 32.1014" stroke="#172C51" stroke-width="8.02083" stroke-miterlimit="8" fill="none" fill-rule="evenodd" transform="matrix(1 0 0 -1 2488 1637.1)"/><path d="M2704.56 1629.06 2761.62 1499.22 2840.85 1515.86 2840.86 1657.69Z" stroke="#F04768" stroke-width="4.58333" stroke-miterlimit="8" fill="#F04768" fill-rule="evenodd"/><path d="M2519.01 1514.74C2514.39 1502.28 2509.77 1489.81 2512.15 1481.94 2514.53 1474.08 2527.11 1470.53 2533.3 1467.55 2539.49 1464.58 2547.12 1465.25 2549.31 1464.1 2551.5 1462.95 2546.45 1460.65 2546.45 1460.65 2544.26 1457.87 2540.73 1453.84 2536.16 1447.41 2531.59 1440.98 2522.34 1429.57 2519.01 1422.09 2515.67 1414.61 2513.29 1405.3 2516.15 1402.52 2519.01 1399.74 2530.44 1403.29 2536.16 1405.4 2541.88 1407.51 2546.07 1411.54 2550.45 1415.18 2554.83 1418.83 2558.46 1422.95 2562.46 1427.27 2566.46 1431.59 2571.51 1435.23 2574.46 1441.08 2577.42 1446.93 2579.51 1454.89 2580.18 1462.37 2580.85 1469.86 2580.56 1478.2 2578.47 1485.97 2576.37 1493.74 2572.46 1503.23 2567.6 1508.99 2562.74 1514.74 2556.03 1517.62 2549.31 1520.5" stroke="#172C51" stroke-width="4.58333" stroke-miterlimit="8" fill="#F8DEC1" fill-rule="evenodd"/><path d="M3136.12 1798.5C3133.97 1789.14 3136.4 1780.93 3140.69 1776.15 3144.98 1771.38 3152.12 1769.66 3161.84 1769.85 3171.56 1770.04 3185.85 1778.83 3199 1777.3 3212.15 1775.77 3230.06 1768.99 3240.73 1760.68 3251.4 1752.37 3261.09 1739.29 3263.02 1727.45 3264.96 1715.61 3260.93 1698.42 3252.35 1689.63 3243.78 1680.84 3226.37 1674.06 3211.57 1674.73 3196.78 1675.4 3175.85 1689.44 3163.56 1693.64 3151.27 1697.84 3149.93 1698.89 3137.83 1699.94 3125.73 1700.99 3102.2 1703.38 3090.96 1699.94 3079.72 1696.51 3074.09 1688.96 3070.38 1679.32 3066.66 1669.67 3066 1653.72 3068.66 1642.07 3071.33 1630.42 3078.67 1617.43 3086.38 1609.41 3094.1 1601.39 3107.44 1594.03 3114.97 1593.94 3122.49 1593.84 3130.97 1595.28 3131.54 1608.84 3132.12 1622.4 3130.69 1641.31 3121.83 1654.68 3112.97 1668.05 3091.62 1682.66 3078.38 1689.06 3065.14 1695.45 3053.71 1694.79 3042.37 1693.07 3031.03 1691.35 3019.03 1686.96 3010.36 1678.74 3001.69 1670.53 2993.78 1658.5 2990.35 1643.79 2986.92 1629.08 2989.2 1601.67 2989.78 1590.5" stroke="#FFFFFF" stroke-width="11.4583" stroke-miterlimit="8" fill="none" fill-rule="evenodd"/><g><g><g><path d="M203.5 254.375C175.519 254.375 152.625 231.481 152.625 203.5 152.625 175.519 175.519 152.625 203.5 152.625 231.481 152.625 254.375 175.519 254.375 203.5 254.375 231.481 231.481 254.375 203.5 254.375ZM317.969 171.703C315.425 162.376 311.609 153.473 306.946 145.418L317.545 113.621 293.379 89.4552 261.582 100.054C253.103 95.3906 244.2 91.575 234.873 89.0312L220.458 59.3542 186.542 59.3542 171.703 89.0312C162.376 91.575 153.473 95.3906 145.418 100.054L113.621 89.4552 89.4552 113.621 100.054 145.418C95.3906 153.897 91.575 162.8 89.0312 172.127L59.3542 186.542 59.3542 220.458 89.0312 235.297C91.575 244.624 95.3906 253.527 100.054 261.582L89.4552 293.379 113.621 317.545 145.418 306.946C153.897 311.609 162.8 315.425 172.127 317.969L186.966 347.646 220.882 347.646 235.721 317.969C245.048 315.425 253.951 311.609 262.006 306.946L293.803 317.545 317.969 293.379 307.37 261.582C312.033 253.103 315.849 244.2 318.393 234.873L348.07 220.034 348.07 186.118 317.969 171.703Z" fill="#589EAD" transform="matrix(1.00246 0 0 1 3124 1127)"/></g></g></g><path d="M0 0 110.219 230.455" stroke="#172C51" stroke-width="8.02083" stroke-miterlimit="8" fill="none" fill-rule="evenodd" transform="matrix(-1 0 0 1 2750.22 1515)"/><path d="M2750 1515C2753.47 1508.6 2756.93 1502.2 2763.47 1496.5 2770.01 1490.8 2771.97 1487.25 2789.25 1480.8 2806.53 1474.36 2843.53 1464.45 2867.15 1457.82 2890.78 1451.18 2910.89 1446.09 2931 1441" stroke="#172C51" stroke-width="8.02083" stroke-miterlimit="8" fill="none" fill-rule="evenodd"/><path d="M2740.86 970.26C2756.78 958.96 2772.7 947.66 2789.48 925.061 2806.27 902.461 2830 861.897 2841.57 834.662 2853.15 807.426 2861.83 787.145 2858.94 761.648 2856.05 736.151 2850.84 701.961 2824.21 681.68 2797.58 661.398 2743.18 641.696 2699.19 639.957 2655.2 638.219 2607.16 645.752 2560.27 671.249 2513.39 696.746 2451.45 739.627 2417.88 792.939 2384.31 846.251 2388.94 935.491 2358.84 991.121 2328.75 1046.75 2277.23 1096.01 2237.29 1126.72 2197.36 1157.43 2161.47 1174.24 2119.22 1175.4 2076.96 1176.55 2006.93 1168.44 1983.77 1133.67 1960.62 1098.9 1964.67 1015.46 1980.3 966.783 1995.93 918.107 2028.92 883.918 2077.54 841.616 2126.16 799.314 2228.61 769.181 2272.02 712.971 2315.43 656.762 2338.59 564.045 2338.01 504.359 2337.43 444.672 2317.75 383.248 2268.55 354.853 2219.35 326.459 2114.58 307.915 2042.81 333.992 1971.04 360.068 1916.63 483.498 1837.91 511.313 1759.19 539.128 1664.85 520.005 1570.5 500.882" stroke="#EEEEF0" stroke-width="44.6875" stroke-miterlimit="8" stroke-dasharray="178.75 134.062" fill="none" fill-rule="evenodd"/></g></svg>