<svg width="96" height="96" xmlns="http://www.w3.org/2000/svg" xmlns:xlink="http://www.w3.org/1999/xlink" xml:space="preserve" overflow="hidden"><g transform="translate(-504 -343)"><path d="M565 356C565 360.418 561.418 364 557 364 552.582 364 549 360.418 549 356 549 351.582 552.582 348 557 348 561.418 348 565 351.582 565 356Z" fill="#FFFFFF"/><path d="M555.7 397.7 558.4 384.2 560.3 388.6C560.8 389.6 561.6 390.4 562.7 390.8L571 393.6 563.3 403.3 555.7 397.7ZM577.3 387.2 567 383.8C567 383.8 561.3 370.6 561.1 370.2 559.7 367.6 557 366 554.1 366 552.9 366 551.8 366.3 550.7 366.8 548.5 367.7 546.9 369.5 546.5 371.8L544.3 382.4 538.4 411.2 524.9 427.5C523.5 429.2 523.7 431.7 525.4 433.1 526.1 433.7 527 434 527.9 434 529.1 434 530.2 433.5 531 432.5L545 415.5C545.4 415 545.7 414.4 545.8 413.8L548.2 402.2 558.3 409.5 541.4 430.8C540.9 431.4 540.8 432.1 541.1 432.8 541.4 433.5 542 434 542.7 434.1 543.4 434.2 544.1 433.9 544.6 433.3L559 415.1 559 429.9C559 432 560.5 433.8 562.6 434.1 563.7 434.2 564.9 433.8 565.7 433.1 566.5 432.3 567 431.3 567 430.1L567 408C567 407.2 566.8 406.5 566.3 405.8L575 394.9C575.3 395 575.7 395 576 395 577.7 395 579.2 393.9 579.8 392.3 580.1 391.3 580.1 390.2 579.6 389.2 579.1 388.3 578.3 387.5 577.3 387.2Z" fill="#FFFFFF"/><path d="M535.3 362.6C535.5 361.5 536.6 360.8 537.6 361 538.7 361.2 539.4 362.3 539.2 363.3 539 364.4 537.9 365.1 536.9 364.9 535.8 364.7 535.1 363.6 535.3 362.6ZM544.1 364.2C544.7 361.1 543.1 357.9 540.2 356.6 537.3 355.3 533.9 356 531.8 358.4 529.7 360.8 529.6 364.3 531.4 366.9 530.4 366.7 529.4 367.4 529.2 368.5L525.5 386.9C525 389 525.5 391.1 526.9 392.8 528.2 394.5 530.2 395.4 532.3 395.4 535.7 395.3 538.5 392.8 539.1 389.5L542.8 371.1C542.9 370.6 542.8 370.1 542.5 369.6 542.2 369.2 541.8 368.9 541.3 368.7L541.1 368.7C542.7 367.8 543.8 366.1 544.1 364.2Z" fill="#FFFFFF"/></g></svg>