<svg width="96" height="96" xmlns="http://www.w3.org/2000/svg" xmlns:xlink="http://www.w3.org/1999/xlink" xml:space="preserve" overflow="hidden"><g transform="translate(-293 -343)"><path d="M383.6 379.3 378.4 377.4 378.4 366.5 383.6 364.3 348.4 351.3 305.6 366.3C301.5 368.3 301.4 373.8 301.4 378.3 301.4 379.8 301.6 381.3 301.9 382.7 298.5 384.9 298.4 390 298.4 394.3 298.4 397.8 299.2 401 301.4 403 300.9 404.7 301.2 406.8 301.2 409.3 301.2 413.8 302.4 417.9 306.4 419.3L334.2 430.8 383.4 410.4 378.2 408.5 378.2 397.5 383.4 395.3 375.4 392.3 375.4 382.7 383.6 379.3ZM306.8 373.3 334.6 384.2 374.5 368.1 374.5 376.7 334.6 393.3 306.8 382.3 306.8 373.3ZM374.3 407.8 334.4 424.3 306.5 413.3 306.5 405.5 331.4 415.7 374.4 398.7 374.3 407.8ZM371.5 392.8 331.6 409.3 303.8 398.3 303.8 389.3 332.4 400.7 371.6 384.3 371.6 392.8Z" fill="#FFFFFF"/></g></svg>