<svg width="96" height="96" xmlns="http://www.w3.org/2000/svg" xmlns:xlink="http://www.w3.org/1999/xlink" xml:space="preserve" overflow="hidden"><g transform="translate(-672 -360)"><path d="M714.772 380.951 714.772 380.951C709.401 380.982 705.036 385.293 704.937 390.663L704.937 391.032C704.98 392.21 705.216 393.374 705.637 394.475 706.027 395.466 706.59 396.38 707.299 397.175 708.426 398.534 709.391 400.019 710.176 401.601L719.363 401.601C720.148 400.02 721.113 398.534 722.24 397.175 722.949 396.38 723.512 395.466 723.903 394.475 724.323 393.373 724.56 392.21 724.603 391.032L724.603 390.663C724.501 385.296 720.14 380.987 714.772 380.951Z" fill="#FFFFFF"/><path d="M753.005 409.3 746.105 397.3 746.105 396.8C746.711 380.204 733.748 366.259 717.151 365.653 700.555 365.048 686.611 378.011 686.005 394.607 685.978 395.338 685.978 396.069 686.005 396.8 685.966 406.262 690.326 415.204 697.805 421L697.805 446.3 729.405 446.3 729.405 434.3 734.305 434.3C740.822 434.301 746.106 429.019 746.107 422.502 746.107 422.435 746.106 422.367 746.105 422.3L746.105 416.3 750.505 416.3C753.105 416 755.405 413 753.005 409.3ZM714.772 414.558C713.097 414.56 711.703 413.273 711.572 411.603L717.965 411.603C717.834 413.27 716.444 414.556 714.772 414.558ZM719.178 409.558 710.366 409.558C709.551 409.537 708.908 408.859 708.929 408.044 708.949 407.259 709.581 406.627 710.366 406.607L719.178 406.607C719.993 406.628 720.636 407.306 720.615 408.121 720.595 408.906 719.963 409.538 719.178 409.558ZM727.558 391.084C727.511 392.599 727.21 394.095 726.668 395.51 726.15 396.846 725.397 398.079 724.445 399.15 723.261 400.649 722.256 402.281 721.451 404.013 721.285 404.347 720.943 404.559 720.57 404.559L708.97 404.559C708.597 404.559 708.256 404.347 708.09 404.013 707.283 402.281 706.276 400.649 705.09 399.15 704.138 398.079 703.385 396.846 702.867 395.51 702.326 394.095 702.025 392.599 701.977 391.084L701.977 390.642C702.103 383.654 707.782 378.043 714.771 378L714.771 378C721.756 378.046 727.431 383.655 727.558 390.639Z" fill="#FFFFFF"/></g></svg>