<svg width="320" height="253" xmlns="http://www.w3.org/2000/svg" xmlns:xlink="http://www.w3.org/1999/xlink" xml:space="preserve" overflow="hidden"><g transform="translate(-1397 -278)"><path d="M189.382 2.14935C186.196-0.788276 181.121-0.704179 178.044 2.33776 175.043 5.30462 175.043 10.0083 178.044 12.9752L284.492 114.619C284.523 114.649 284.522 114.699 284.491 114.727 284.476 114.741 284.456 114.75 284.436 114.75L6.30335 114.177C1.8752 114.177-0.0858035 118.765 0.00302391 121.22 0.0918514 123.675 2.40855 128.906 6.83669 128.906L284.436 130.062C284.48 130.063 284.515 130.097 284.515 130.14 284.514 130.159 284.506 130.179 284.492 130.192L178.044 231.837C174.859 234.774 174.77 239.621 177.847 242.662 180.923 245.704 186 245.789 189.184 242.851 189.252 242.789 189.317 242.726 189.382 242.662L309.652 127.819C312.783 124.829 312.783 119.983 309.652 116.993L189.382 2.14935Z" stroke="#455365" stroke-width="7.6271" stroke-miterlimit="8" fill="#455365" fill-rule="evenodd" transform="matrix(-1 0 0 1 1713 282)"/></g></svg>