<svg width="320" height="253" xmlns="http://www.w3.org/2000/svg" xmlns:xlink="http://www.w3.org/1999/xlink" xml:space="preserve" overflow="hidden"><g transform="translate(-1815 -286)"><path d="M2008.38 292.149C2005.2 289.212 2000.12 289.296 1997.04 292.338 1994.04 295.305 1994.04 300.008 1997.04 302.975L2103.49 404.619C2103.52 404.649 2103.52 404.698 2103.49 404.727 2103.48 404.741 2103.46 404.75 2103.44 404.75L1825.3 404.177C1820.88 404.177 1818.91 408.765 1819 411.22 1819.09 413.675 1821.41 418.906 1825.84 418.906L2103.44 420.062C2103.48 420.063 2103.52 420.097 2103.52 420.139 2103.51 420.159 2103.51 420.178 2103.49 420.192L1997.04 521.836C1993.86 524.774 1993.77 529.621 1996.85 532.662 1999.92 535.704 2005 535.789 2008.18 532.851 2008.25 532.788 2008.32 532.726 2008.38 532.662L2128.65 417.819C2131.78 414.829 2131.78 409.982 2128.65 406.993L2008.38 292.149Z" stroke="#FFFFFF" stroke-width="7.6271" stroke-miterlimit="8" fill="#FFFFFF" fill-rule="evenodd"/></g></svg>