<svg width="660" height="660" xmlns="http://www.w3.org/2000/svg" xmlns:xlink="http://www.w3.org/1999/xlink" xml:space="preserve" overflow="hidden"><g transform="translate(-2683 -7)"><g><g><g><path d="M456.125 465.025 344.875 359.337 456.125 253.65 456.125 465.025ZM95.675 478.375 205.812 374.356 213.6 367.125C243.637 338.756 290.919 338.756 320.956 367.125L328.744 374.356 438.325 478.375 95.675 478.375ZM77.875 253.094 189.125 358.781 77.875 464.469 77.875 253.094ZM155.75 111.25 378.25 111.25 378.25 296.481 328.187 344.319C292.031 316.506 241.969 316.506 205.812 344.319L155.75 296.481 155.75 111.25ZM411.625 126.269 411.625 77.875 333.75 77.875 267 22.25 200.25 77.875 122.375 77.875 122.375 126.825 44.5 200.806 44.5 511.75 489.5 511.75 489.5 200.806 411.625 126.269Z" fill="#FFFFFF" transform="matrix(1 0 0 1 2739 52.9999)"/><path d="M267 235.294C256.987 235.294 249.2 226.95 249.2 217.494 249.2 207.481 257.544 199.694 267 199.694 277.012 199.694 284.8 207.481 284.8 217.494 284.8 227.506 277.012 235.294 267 235.294ZM267 289.25C279.794 289.25 292.031 285.912 303.156 280.35 307.606 277.569 309.275 272.006 307.05 267.556 304.269 263.106 298.706 261.437 294.256 263.662 285.912 268.112 276.456 270.337 267 270.337 237.519 270.337 213.044 245.862 213.6 216.381 213.6 186.9 238.075 162.425 267.556 162.425 297.037 162.425 321.512 186.344 321.512 216.381L321.512 234.181C311.5 234.181 303.712 226.394 303.712 216.381 303.712 198.581 291.475 183.562 274.231 180.225 256.987 176.887 239.744 186.344 233.625 202.475 227.506 218.606 233.625 237.519 248.644 246.419 263.662 255.319 283.131 252.537 294.812 239.187 301.487 246.975 311.5 251.425 322.069 251.425 332.081 251.425 339.869 243.637 339.869 233.625L339.869 215.825C339.869 175.775 307.606 143.512 267.556 143.512 227.506 143.512 195.244 175.775 195.244 215.825 194.687 256.431 226.95 288.694 267 289.25Z" fill="#FFFFFF" transform="matrix(1 0 0 1 2739 52.9999)"/></g></g></g></g></svg>