<svg width="495" height="501" xmlns="http://www.w3.org/2000/svg" xmlns:xlink="http://www.w3.org/1999/xlink" xml:space="preserve" overflow="hidden"><defs><clipPath id="clip0"><rect x="4967" y="485" width="489" height="492"/></clipPath><clipPath id="clip1"><rect x="4967" y="485" width="489" height="492"/></clipPath><clipPath id="clip2"><rect x="4967" y="485" width="489" height="492"/></clipPath></defs><g transform="translate(-4964 -485)"><g clip-path="url(#clip0)"><g clip-path="url(#clip1)"><g clip-path="url(#clip2)"><path d="M159.419 381.876C159.419 383.798 157.209 385.336 154.423 385.336 151.252 385.624 149.041 384.087 149.041 381.876 149.041 379.955 151.252 378.417 154.038 378.417 156.921 378.129 159.419 379.666 159.419 381.876ZM129.534 377.552C128.862 379.474 130.784 381.684 133.666 382.261 136.165 383.222 139.048 382.261 139.624 380.339 140.201 378.417 138.375 376.207 135.492 375.342 132.994 374.669 130.207 375.63 129.534 377.552ZM172.008 375.919C169.221 376.591 167.299 378.417 167.587 380.627 167.876 382.549 170.374 383.798 173.257 383.126 176.044 382.453 177.966 380.627 177.677 378.705 177.389 376.88 174.794 375.63 172.008 375.919ZM235.237 7.6875C101.955 7.6875 0 108.874 0 242.156 0 348.724 67.0734 439.917 162.879 472.012 175.179 474.223 179.503 466.631 179.503 460.385 179.503 454.427 179.215 421.563 179.215 401.384 179.215 401.384 111.949 415.798 97.8234 372.748 97.8234 372.748 86.8687 344.784 71.1094 337.577 71.1094 337.577 49.1039 322.491 72.6469 322.779 72.6469 322.779 96.5742 324.701 109.739 347.571 130.784 384.663 166.05 373.997 179.791 367.655 182.002 352.28 188.248 341.613 195.166 335.271 141.45 329.313 87.2531 321.53 87.2531 229.087 87.2531 202.662 94.5562 189.401 109.931 172.488 107.433 166.242 99.2648 140.489 112.43 107.241 132.513 100.995 178.734 133.186 178.734 133.186 197.953 127.805 218.613 125.018 239.081 125.018 259.549 125.018 280.209 127.805 299.428 133.186 299.428 133.186 345.649 100.898 365.733 107.241 378.898 140.585 370.73 166.242 368.231 172.488 383.606 189.497 393.023 202.758 393.023 229.087 393.023 321.818 336.424 329.217 282.708 335.271 291.548 342.862 299.044 357.276 299.044 379.859 299.044 412.242 298.755 452.313 298.755 460.193 298.755 466.439 303.176 474.03 315.38 471.82 411.473 439.917 476.625 348.724 476.625 242.156 476.625 108.874 368.519 7.6875 235.237 7.6875ZM93.4031 339.115C92.1539 340.076 92.4422 342.286 94.0758 344.112 95.6133 345.649 97.8234 346.322 99.0726 345.073 100.322 344.112 100.034 341.901 98.4 340.076 96.8625 338.538 94.6523 337.866 93.4031 339.115ZM83.025 331.331C82.3523 332.58 83.3133 334.118 85.2351 335.079 86.7726 336.04 88.6945 335.751 89.3672 334.406 90.0398 333.157 89.0789 331.619 87.157 330.659 85.2351 330.082 83.6976 330.37 83.025 331.331ZM114.159 365.541C112.622 366.79 113.198 369.673 115.409 371.498 117.619 373.709 120.405 373.997 121.655 372.459 122.904 371.21 122.327 368.327 120.405 366.501 118.291 364.291 115.409 364.003 114.159 365.541ZM103.205 351.415C101.667 352.376 101.667 354.874 103.205 357.084 104.742 359.294 107.337 360.255 108.586 359.294 110.123 358.045 110.123 355.547 108.586 353.337 107.241 351.126 104.742 350.166 103.205 351.415Z" fill="#FFFFFF" transform="matrix(1.02387 0 0 1 4968 485)"/></g></g></g></g></svg>