<svg width="507" height="508" xmlns="http://www.w3.org/2000/svg" xmlns:xlink="http://www.w3.org/1999/xlink" xml:space="preserve" overflow="hidden"><g transform="translate(-5703 -902)"><path d="M6173.79 902 5739.1 902C5719.18 902 5703 918.442 5703 938.626L5703 1373.37C5703 1393.56 5719.18 1410 5739.1 1410L6173.79 1410C6193.7 1410 6210 1393.56 6210 1373.37L6210 938.626C6210 918.442 6193.7 902 6173.79 902ZM5856.23 1337.43 5781.09 1337.43 5781.09 1094.99 5856.34 1094.99 5856.34 1337.43ZM5818.66 1061.88C5794.55 1061.88 5775.09 1042.27 5775.09 1018.23 5775.09 994.188 5794.55 974.571 5818.66 974.571 5842.65 974.571 5862.23 994.188 5862.23 1018.23 5862.23 1042.38 5842.76 1061.88 5818.66 1061.88ZM6137.91 1337.43 6062.77 1337.43 6062.77 1219.5C6062.77 1191.38 6062.2 1155.21 6023.72 1155.21 5984.57 1155.21 5978.57 1185.82 5978.57 1217.46L5978.57 1337.43 5903.42 1337.43 5903.42 1094.99 5975.51 1094.99 5975.51 1128.11 5976.53 1128.11C5986.6 1109.06 6011.16 1088.98 6047.71 1088.98 6123.76 1088.98 6137.91 1139.22 6137.91 1204.53L6137.91 1337.43Z" fill="#FFFFFF" fill-rule="evenodd"/></g></svg>