<svg width="660" height="660" xmlns="http://www.w3.org/2000/svg" xmlns:xlink="http://www.w3.org/1999/xlink" xml:space="preserve" overflow="hidden"><g transform="translate(-4020 595)"><path d="M4301.22-375.764C4305.4-380.25 4307.98-386.391 4307.92-393.064 4307.86-399.737 4305.17-405.831 4300.91-410.242L4227.49-485.771C4223.23-490.182 4217.41-492.91 4211.61-492.857 4205.81-492.805 4199.51-489.968 4195.33-485.481L4187.5-477.068 4293.39-367.351 4301.22-375.764Z" fill="#FFFFFF" fill-rule="evenodd"/><path d="M4415.71-182.554C4413.62-180.31 4410.47-179.169 4407.83-179.146 4405.2-179.122 4402.02-180.206 4399.9-182.411L4267.93-318.588C4265.81-320.793 4264.72-324.12 4264.7-326.901 4264.67-329.681 4265.7-333.027 4267.78-335.271L4283.97-352.101 4178.08-461.818C4171.29-454.527 4165.03-447.797 4160.85-443.31 4150.4-432.649 4144.21-418.69 4143.81-403.67 4142.46-378.632 4148.47-354.772 4156.59-331.487 4165.21-310.988 4176.45-291.624 4188.74-273.383 4232.58-205.372 4287.41-146.36 4351.09-99.6621 4361.71-91.4158 4372.84-84.2862 4384.5-77.7178 4410.98-64.053 4439.01-54.2952 4469.07-52.3416 4489.12-50.8537 4509.07-59.376 4522.64-75.07L4536.73-90.213 4431.37-199.935 4415.71-182.554Z" fill="#FFFFFF" fill-rule="evenodd"/><path d="M4567.13-147.644 4493.7-223.729C4489.44-228.14 4483.62-230.868 4477.29-230.811 4470.97-230.754 4465.19-227.921 4461.02-223.434L4453.19-214.465 4559.08-104.748 4566.92-113.161C4571.09-117.648 4573.67-123.789 4573.61-130.462 4573.55-137.135 4571.39-143.233 4567.13-147.644Z" fill="#FFFFFF" fill-rule="evenodd"/></g></svg>