<svg width="330" height="330" xmlns="http://www.w3.org/2000/svg" xmlns:xlink="http://www.w3.org/1999/xlink" xml:space="preserve" overflow="hidden"><defs><clipPath id="clip0"><rect x="1767" y="636" width="330" height="330"/></clipPath></defs><g clip-path="url(#clip0)" transform="translate(-1767 -636)"><path d="M1830.22 801.153C1830.25 797.09 1830.5 793.032 1831 789L1767 789 1767 813 1830.95 813C1830.49 809.069 1830.24 805.113 1830.22 801.153Z" fill="#FFFFFF" fill-rule="evenodd"/><path d="M1932 699.25C1936.01 699.268 1940.02 699.518 1944 700L1944 636 1920 636 1920 700C1923.98 699.518 1927.99 699.267 1932 699.25Z" fill="#FFFFFF" fill-rule="evenodd"/><path d="M2011.72 738 2057 692.7 2040.3 676 1995 721.323C2001.2 726.216 2006.81 731.812 2011.72 738Z" fill="#FFFFFF" fill-rule="evenodd"/><path d="M1869 721.323 1823.7 676 1807 692.705 1852.28 738C1857.19 731.812 1862.8 726.216 1869 721.323Z" fill="#FFFFFF" fill-rule="evenodd"/><path d="M1995 880.775 2040.26 926.001 2057 909.258 2011.72 864C2006.82 870.221 2001.21 875.85 1995 880.775Z" fill="#FFFFFF" fill-rule="evenodd"/><path d="M2033 789C2034.02 796.966 2034.03 805.031 2033.05 813L2097 813 2097 789Z" fill="#FFFFFF" fill-rule="evenodd"/><path d="M1932 902.755C1927.99 902.734 1923.98 902.482 1920 902L1920 966 1944 966 1944 902C1940.02 902.482 1936.01 902.734 1932 902.755Z" fill="#FFFFFF" fill-rule="evenodd"/><path d="M1852.26 864 1807 909.264 1823.76 926 1869 880.76C1862.79 875.838 1857.18 870.214 1852.26 864Z" fill="#FFFFFF" fill-rule="evenodd"/><path d="M2015 801C2015 846.84 1977.84 884.001 1932 884.001 1886.16 884.001 1849 846.84 1849 801 1849 755.161 1886.16 718 1932 718 1977.84 718 2015 755.161 2015 801Z" fill="#FFFFFF" fill-rule="evenodd"/></g></svg>