<svg width="330" height="330" xmlns="http://www.w3.org/2000/svg" xmlns:xlink="http://www.w3.org/1999/xlink" xml:space="preserve" overflow="hidden"><g transform="translate(-2517 -880)"><path d="M2580.22 1045.15C2580.25 1041.09 2580.5 1037.03 2581 1033L2517 1033 2517 1057 2580.95 1057C2580.48 1053.07 2580.24 1049.11 2580.22 1045.15Z" fill-rule="evenodd"/><path d="M2682 944.238C2686.01 944.256 2690.02 944.511 2694 945L2694 880 2670 880 2670 945C2673.98 944.511 2677.99 944.256 2682 944.238Z" fill-rule="evenodd"/><path d="M2761.72 982 2807 936.7 2790.3 920 2745 965.323C2751.2 970.216 2756.81 975.812 2761.72 982Z" fill-rule="evenodd"/><path d="M2619 965.323 2573.7 920 2557 936.705 2602.28 982C2607.19 975.812 2612.8 970.216 2619 965.323Z" fill-rule="evenodd"/><path d="M2745 1124.77 2790.26 1170 2807 1153.26 2761.72 1108C2756.82 1114.22 2751.21 1119.85 2745 1124.77Z" fill-rule="evenodd"/><path d="M2783 1033C2784.02 1040.97 2784.03 1049.03 2783.05 1057L2847 1057 2847 1033Z" fill-rule="evenodd"/><path d="M2682 1146.75C2677.99 1146.73 2673.98 1146.48 2670 1146L2670 1210 2694 1210 2694 1146C2690.02 1146.48 2686.01 1146.73 2682 1146.75Z" fill-rule="evenodd"/><path d="M2602.26 1108 2557 1153.26 2573.76 1170 2619 1124.76C2612.79 1119.84 2607.18 1114.21 2602.26 1108Z" fill-rule="evenodd"/><path d="M2764 1045.5C2764 1091.06 2727.06 1128 2681.5 1128 2635.94 1128 2599 1091.06 2599 1045.5 2599 999.937 2635.94 963 2681.5 963 2727.06 963 2764 999.937 2764 1045.5Z" fill-rule="evenodd"/></g></svg>